<svg xmlns="http://www.w3.org/2000/svg" width="150" height="150" viewBox="0 0 150 150">
  <g id="Grupo_28652" data-name="Grupo 28652" transform="translate(15090 8979)">
    <rect id="Rectángulo_5409" data-name="Rectángulo 5409" width="150" height="150" transform="translate(-15090 -8979)" fill="none"/>
    <g id="Grupo_28649" data-name="Grupo 28649" transform="translate(-15064 -8945)">
      <path id="Trazado_39687" data-name="Trazado 39687" d="M465.07,1761.618H370.756v70.127H456.7a8.342,8.342,0,0,0,8.367-8.367Z" transform="translate(-369.234 -1750.818)" fill="#e0e4e8"/>
      <path id="Trazado_39688" data-name="Trazado 39688" d="M450.2,1826.911H364.4a1.437,1.437,0,0,1-1.521-1.521v-70.127a1.437,1.437,0,0,1,1.521-1.521h94.314a1.437,1.437,0,0,1,1.521,1.521v61.609A10.03,10.03,0,0,1,450.2,1826.911Zm-84.274-3.042H450.2a6.948,6.948,0,0,0,7-6.845v-60.24H365.921Z" transform="translate(-362.879 -1744.462)" fill="#193540"/>
      <path id="Trazado_39689" data-name="Trazado 39689" d="M402.264,1851.083v-57.957h82.145v55.524a2.28,2.28,0,0,1-2.434,2.282H402.264Z" transform="translate(-394.658 -1776.241)" fill="#fff"/>
      <path id="Trazado_39690" data-name="Trazado 39690" d="M783.691,1713.569a8.116,8.116,0,0,0-8.062,8.062V1783.7a8.062,8.062,0,0,1,16.125,0v-62.065A8.116,8.116,0,0,0,783.691,1713.569Z" transform="translate(-695.918 -1712.048)" fill="#657d89"/>
      <path id="Trazado_39691" data-name="Trazado 39691" d="M785.4,1778.861a1.437,1.437,0,0,1-1.521-1.521,6.541,6.541,0,0,0-13.082,0,1.521,1.521,0,1,1-3.042,0v-62.065a9.584,9.584,0,1,1,19.167,0v62.065A1.437,1.437,0,0,1,785.4,1778.861Zm-8.062-11.1a9.067,9.067,0,0,1,6.541,2.586v-55.068a6.541,6.541,0,0,0-13.082,0v55.068A9.742,9.742,0,0,1,777.336,1767.756Z" transform="translate(-689.562 -1705.691)" fill="#193540"/>
      <rect id="Rectángulo_5395" data-name="Rectángulo 5395" width="52.329" height="7.302" transform="translate(14.756 21.905)" fill="#fff"/>
      <path id="Trazado_39692" data-name="Trazado 39692" d="M485.411,1821.587H432.929a1.437,1.437,0,0,1-1.521-1.521v-7.3a1.437,1.437,0,0,1,1.521-1.521h52.329a1.437,1.437,0,0,1,1.521,1.521v7.3A1.324,1.324,0,0,1,485.411,1821.587Zm-50.96-3.042h49.287v-4.259H434.45Z" transform="translate(-418.173 -1790.859)" fill="#193540"/>
      <rect id="Rectángulo_5396" data-name="Rectángulo 5396" width="7.302" height="31.337" transform="translate(14.756 37.574)" fill="#fff"/>
      <path id="Trazado_39693" data-name="Trazado 39693" d="M441.019,1926.754h-7.3a1.437,1.437,0,0,1-1.521-1.521V1893.9a1.56,1.56,0,0,1,1.521-1.521h7.3a1.437,1.437,0,0,1,1.521,1.521v31.337A1.636,1.636,0,0,1,441.019,1926.754Zm-5.933-3.042h4.259v-28.294h-4.259Z" transform="translate(-418.809 -1856.323)" fill="#193540"/>
      <path id="Trazado_39694" data-name="Trazado 39694" d="M508.011,1911.966l-3.347-5.781,3.347-5.933h6.845l3.347,5.933-3.347,5.781Z" transform="translate(-477.282 -1862.679)" fill="#fff"/>
      <g id="Grupo_28639" data-name="Grupo 28639" transform="translate(25.785 35.9)">
        <path id="Trazado_39695" data-name="Trazado 39695" d="M508.183,1906.5h-6.845a1.6,1.6,0,0,1-1.369-.761l-3.347-5.933a1.382,1.382,0,0,1,0-1.521l3.347-5.932a1.6,1.6,0,0,1,1.369-.76h6.845a1.6,1.6,0,0,1,1.369.76l3.347,5.932a1.382,1.382,0,0,1,0,1.521l-3.347,5.933A1.6,1.6,0,0,1,508.183,1906.5Zm-5.933-3.043h5.02l2.434-4.411-2.434-4.411h-5.02l-2.586,4.411Z" transform="translate(-496.394 -1891.588)" fill="#193540"/>
        <path id="Trazado_39696" data-name="Trazado 39696" d="M618.245,1895.417H597.557a1.521,1.521,0,1,1,0-3.042h20.688a1.437,1.437,0,0,1,1.521,1.521A1.524,1.524,0,0,1,618.245,1895.417Z" transform="translate(-576.793 -1892.223)" fill="#193540"/>
        <path id="Trazado_39697" data-name="Trazado 39697" d="M618.245,1949.767H597.557a1.521,1.521,0,1,1,0-3.042h20.688a1.437,1.437,0,0,1,1.521,1.521A1.524,1.524,0,0,1,618.245,1949.767Z" transform="translate(-576.793 -1936.077)" fill="#193540"/>
      </g>
      <path id="Trazado_39698" data-name="Trazado 39698" d="M534.2,2057.682h-27.23a1.521,1.521,0,0,1,0-3.043H534.2a1.437,1.437,0,0,1,1.521,1.521A1.524,1.524,0,0,1,534.2,2057.682Z" transform="translate(-477.917 -1987.25)" fill="#193540"/>
      <g id="Grupo_28640" data-name="Grupo 28640" transform="translate(27.534 56.132)">
        <path id="Trazado_39699" data-name="Trazado 39699" d="M704.683,2010.649a1.437,1.437,0,0,1-1.521-1.521v-11.257a1.521,1.521,0,1,1,3.042,0v11.257A1.636,1.636,0,0,1,704.683,2010.649Z" transform="translate(-664.98 -1996.35)" fill="#193540"/>
        <rect id="Rectángulo_5397" data-name="Rectángulo 5397" width="3.042" height="3.042" transform="translate(0 3.499)" fill="#193540"/>
        <rect id="Rectángulo_5398" data-name="Rectángulo 5398" width="3.042" height="3.042" transform="translate(6.085 3.499)" fill="#193540"/>
        <rect id="Rectángulo_5399" data-name="Rectángulo 5399" width="3.042" height="3.042" transform="translate(12.17 3.499)" fill="#193540"/>
        <rect id="Rectángulo_5400" data-name="Rectángulo 5400" width="3.042" height="3.042" transform="translate(18.254 3.499)" fill="#193540"/>
        <rect id="Rectángulo_5401" data-name="Rectángulo 5401" width="3.042" height="3.042" transform="translate(24.339 3.499)" fill="#193540"/>
      </g>
    </g>
  </g>
</svg>
