<svg xmlns="http://www.w3.org/2000/svg" width="150" height="150" viewBox="0 0 150 150">
  <g id="Grupo_28651" data-name="Grupo 28651" transform="translate(15090 9212)">
    <rect id="Rectángulo_5408" data-name="Rectángulo 5408" width="150" height="150" transform="translate(-15090 -9212)" fill="none"/>
    <g id="Grupo_28648" data-name="Grupo 28648" transform="translate(-15067.683 -9183.28)">
      <path id="Trazado_39700" data-name="Trazado 39700" d="M-73.939,1899.006v23.234h-46.8v-23.234a10.951,10.951,0,0,1,10.308-10.963c3.109,4.745,7.69,7.527,13.09,7.527,5.236,0,9.981-2.945,13.09-7.527A11.072,11.072,0,0,1-73.939,1899.006Z" transform="translate(136.444 -1852.699)" fill="#657d89"/>
      <path id="Trazado_39701" data-name="Trazado 39701" d="M-78.543,1917.636h-50.069v-24.871a12.587,12.587,0,0,1,11.945-12.6h.982l.491.818c2.782,4.418,7.036,6.872,11.617,6.872s8.836-2.454,11.617-6.872l.491-.818h.982a12.587,12.587,0,0,1,11.945,12.6v24.871Zm-46.8-3.272h43.524v-21.6a9.2,9.2,0,0,0-8.018-9.163c-3.436,4.745-8.345,7.527-13.744,7.527s-10.308-2.782-13.744-7.527a9.321,9.321,0,0,0-8.018,9.163Z" transform="translate(142.684 -1846.459)" fill="#193540"/>
      <path id="Trazado_39702" data-name="Trazado 39702" d="M-90.016,1944.239v-16.526a4.6,4.6,0,0,1,1.636-3.436,20.935,20.935,0,0,0,15.217,6.545,20.935,20.935,0,0,0,15.217-6.545,4.6,4.6,0,0,1,1.636,3.436v16.526Z" transform="translate(112.105 -1881.406)" fill="#fff"/>
      <ellipse id="Elipse_1274" data-name="Elipse 1274" cx="11.29" cy="15.381" rx="11.29" ry="15.381" transform="translate(27.816 4.909)" fill="#fbbd5e"/>
      <path id="Trazado_39703" data-name="Trazado 39703" d="M-57.4,1767.689c-7.036,0-12.926-7.69-12.926-17.017s5.727-17.017,12.926-17.017c7.036,0,12.926,7.69,12.926,17.017S-50.362,1767.689-57.4,1767.689Zm0-30.761c-5.236,0-9.654,6.218-9.654,13.744s4.254,13.744,9.654,13.744c5.236,0,9.654-6.218,9.654-13.744S-52.161,1736.928-57.4,1736.928Z" transform="translate(96.504 -1730.382)" fill="#193540"/>
      <path id="Trazado_39704" data-name="Trazado 39704" d="M-47.347,1733.943c-.327-2.782-2.454-4.745-4.909-6.054a16.635,16.635,0,0,0-14.726,0c-2.454,1.309-4.581,3.109-4.909,6.054,0,0-3.436,2.454,1.145,13.254,0,0-1.145-2.618,2.291-5.236,0,0-1.636-4.909,2.782-5.072,0,0,3.763,1.963,5.89,1.636,2.291.491,5.89-1.636,5.89-1.636,4.418,0,2.782,5.072,2.782,5.072,3.436,2.618,2.291,5.236,2.291,5.236C-43.911,1736.4-47.347,1733.943-47.347,1733.943Z" transform="translate(98.725 -1724.452)" fill="#fff"/>
      <g id="Grupo_28642" data-name="Grupo 28642" transform="translate(23.724 0.001)">
        <path id="Trazado_39705" data-name="Trazado 39705" d="M-54.329,1741.136l-3.109-1.309c0-.164.491-1.636-1.8-3.436l-.982-.655.327-1.146a4.172,4.172,0,0,0,0-2.454,1.249,1.249,0,0,0-.818-.327c-1.145.491-4.091,1.8-6.218,1.636-2.127.327-5.072-.982-6.218-1.636a.961.961,0,0,0-.818.327,4.172,4.172,0,0,0,0,2.454l.327,1.146-.982.655c-2.291,1.8-1.8,3.272-1.8,3.436l-3.109,1.309c-4.091-9.327-2.454-13.254-1.309-14.563.491-2.782,2.454-5.072,5.727-6.709a17.686,17.686,0,0,1,16.2,0c3.273,1.636,5.236,3.927,5.727,6.709C-51.875,1727.882-50.075,1731.809-54.329,1741.136ZM-78.218,1728.7s-1.309,1.473.164,6.708l.655-.655a6.69,6.69,0,0,1,.655-4.254c.491-.818,1.636-1.8,3.927-1.8h.491l.327.164c.818.491,3.436,1.636,4.909,1.473h.654c1.473.327,4.091-.982,4.909-1.473l.327-.164h.491a4.715,4.715,0,0,1,3.927,1.8,5.088,5.088,0,0,1,.655,4.254c.327.164.491.491.655.655,1.473-5.236,0-6.708,0-6.708l-.655-.491v-.655c-.164-1.8-1.636-3.436-4.091-4.745a14.222,14.222,0,0,0-13.09,0c-2.454,1.309-3.927,2.945-4.091,4.745l-.164.655-.655.491Z" transform="translate(82.147 -1717.901)" fill="#193540"/>
        <rect id="Rectángulo_5402" data-name="Rectángulo 5402" width="3.273" height="3.6" transform="translate(4.747 55.142)" fill="#193540"/>
        <rect id="Rectángulo_5403" data-name="Rectángulo 5403" width="3.273" height="3.6" transform="translate(13.746 55.142)" fill="#193540"/>
        <rect id="Rectángulo_5404" data-name="Rectángulo 5404" width="3.273" height="3.6" transform="translate(22.582 55.142)" fill="#193540"/>
      </g>
      <path id="Trazado_39706" data-name="Trazado 39706" d="M-87.03,1996.211a18.965,18.965,0,0,0-17.181-17.835,18.751,18.751,0,0,0-20.126,15.381H-185.2a3.282,3.282,0,0,0-3.273,3.272h0a3.282,3.282,0,0,0,3.273,3.273h60.868a18.673,18.673,0,0,0,18.49,15.544A18.808,18.808,0,0,0-87.03,1996.211Z" transform="translate(190.113 -1924.215)" fill="#e1e6e7"/>
      <path id="Trazado_39707" data-name="Trazado 39707" d="M-112.087,2011.129a20.309,20.309,0,0,1-19.8-15.544h-59.559a4.821,4.821,0,0,1-4.909-4.909,4.821,4.821,0,0,1,4.909-4.909h59.559a20.207,20.207,0,0,1,21.6-15.381,20.415,20.415,0,0,1,18.653,19.308,20.319,20.319,0,0,1-5.563,15.053A20.413,20.413,0,0,1-112.087,2011.129Zm-79.358-22.089a1.546,1.546,0,0,0-1.636,1.636,1.546,1.546,0,0,0,1.636,1.636h60.868a1.594,1.594,0,0,1,1.636,1.309,17.187,17.187,0,0,0,16.853,14.236,17.59,17.59,0,0,0,12.436-5.236,17.121,17.121,0,0,0,4.745-12.6,17.206,17.206,0,0,0-15.544-16.2,16.964,16.964,0,0,0-18.326,14.072,1.594,1.594,0,0,1-1.636,1.309h-61.032Z" transform="translate(196.354 -1917.862)" fill="#193540"/>
      <ellipse id="Elipse_1275" data-name="Elipse 1275" cx="5.236" cy="5.236" rx="5.236" ry="5.236" transform="translate(85.576 67.578)" fill="#fff"/>
      <path id="Trazado_39708" data-name="Trazado 39708" d="M214.6,2049.086a6.872,6.872,0,1,1,6.872-6.873A6.914,6.914,0,0,1,214.6,2049.086Zm0-10.472a3.6,3.6,0,1,0,3.6,3.6A3.631,3.631,0,0,0,214.6,2038.614Z" transform="translate(-123.793 -1969.4)" fill="#193540"/>
      <path id="Trazado_39709" data-name="Trazado 39709" d="M-158.545,2084.178v13.254h6.709v-6.545h5.89v6.545h6.709v-13.254Z" transform="translate(166.399 -2008.092)" fill="#e1e6e7"/>
      <g id="Grupo_28643" data-name="Grupo 28643" transform="translate(6.218 64.305)">
        <path id="Trazado_39710" data-name="Trazado 39710" d="M-145.478,2092.827h-6.709a1.546,1.546,0,0,1-1.636-1.636v-5.072h-2.618v5.072a1.546,1.546,0,0,1-1.636,1.636h-6.709a1.546,1.546,0,0,1-1.636-1.636v-13.254a1.546,1.546,0,0,1,1.636-1.636h19.308a1.546,1.546,0,0,1,1.636,1.636v13.254A1.546,1.546,0,0,1-145.478,2092.827Zm-5.072-3.272h3.436v-9.981h-16.035v9.981h3.436v-5.073a1.546,1.546,0,0,1,1.636-1.636h5.891a1.546,1.546,0,0,1,1.636,1.636v5.073Z" transform="translate(166.422 -2066.156)" fill="#193540"/>
        <rect id="Rectángulo_5405" data-name="Rectángulo 5405" width="3.273" height="3.273" transform="translate(69.541)" fill="#193540"/>
        <rect id="Rectángulo_5406" data-name="Rectángulo 5406" width="3.273" height="3.273" transform="translate(69.541 6.872)" fill="#193540"/>
        <rect id="Rectángulo_5407" data-name="Rectángulo 5407" width="3.273" height="3.273" transform="translate(69.541 13.908)" fill="#193540"/>
      </g>
    </g>
  </g>
</svg>
