<svg xmlns="http://www.w3.org/2000/svg" xmlns:xlink="http://www.w3.org/1999/xlink" width="285.858" height="133.948" viewBox="0 0 285.858 133.948">
  <defs>
    <linearGradient id="linear-gradient" x1="1" y1="0.5" x2="0" y2="0.5" gradientUnits="objectBoundingBox">
      <stop offset="0" stop-color="#fcf6de"/>
      <stop offset="0.257" stop-color="#f6ddc6"/>
      <stop offset="0.797" stop-color="#e8a089"/>
      <stop offset="1" stop-color="#e38871"/>
    </linearGradient>
    <linearGradient id="linear-gradient-5" x1="1" y1="0.5" x2="0" y2="0.5" gradientUnits="objectBoundingBox">
      <stop offset="0.009" stop-color="#231f20"/>
      <stop offset="1" stop-color="#193540"/>
    </linearGradient>
    <linearGradient id="linear-gradient-6" x1="1" y1="0.5" x2="0" y2="0.5" gradientUnits="objectBoundingBox">
      <stop offset="0" stop-color="#ce9117"/>
      <stop offset="0.527" stop-color="#e5a828"/>
      <stop offset="1" stop-color="#ffc23b"/>
    </linearGradient>
    <linearGradient id="linear-gradient-9" x1="1" y1="0.5" x2="0" y2="0.5" xlink:href="#linear-gradient"/>
    <linearGradient id="linear-gradient-11" x1="1" y1="0.5" x2="0" y2="0.5" xlink:href="#linear-gradient-5"/>
    <linearGradient id="linear-gradient-12" x1="1" y1="0.5" x2="0" y2="0.5" gradientUnits="objectBoundingBox">
      <stop offset="0" stop-color="#8995ab"/>
      <stop offset="1" stop-color="#51657f"/>
    </linearGradient>
    <linearGradient id="linear-gradient-13" x1="1" y1="0.5" x2="0" y2="0.5" gradientUnits="objectBoundingBox">
      <stop offset="0.003" stop-color="#9b235c"/>
      <stop offset="1" stop-color="#9b235c"/>
    </linearGradient>
  </defs>
  <g id="Grupo_22906" data-name="Grupo 22906" transform="translate(0)">
    <path id="Trazado_5119" data-name="Trazado 5119" d="M-2576.6,1774.01s-31.337,2.458-40.99-15.892c-14.35-27.283,13.54-49.275,33.774-45.316,44.088,8.627,33.471-86.546,104.227-67.122,19.9,5.462,73.65-26.984,88.642,25.04,3.565,12.369,16.2,13.733,34.532,21.583,35.885,15.365,19.477,81.967-6.164,82.228S-2576.6,1774.01-2576.6,1774.01Z" transform="translate(2621.536 -1640.635)" fill="#657d89" opacity="0.2"/>
    <g id="Grupo_22906-2" data-name="Grupo 22906" transform="translate(80.546 21.766)">
      <path id="Trazado_5122" data-name="Trazado 5122" d="M-2357.431,1691.511s-8.792,8.653-9.195,11.916,3.988,8.367,3.988,8.367Z" transform="translate(2366.922 -1674.191)" fill="#f4f4f4"/>
      <path id="Trazado_5123" data-name="Trazado 5123" d="M-2385.692,1807.9s.285,4.6,1.175,4.666c.118.008,4.514.008,4.514.008l5.608-.032a1.82,1.82,0,0,0-1.677-1.638c-1.64-.286-4.385-1.438-5.378-3.606C-2382.493,1805.014-2385.692,1807.9-2385.692,1807.9Z" transform="translate(2398.513 -1700.817)" fill="#232323"/>
      <path id="Trazado_5124" data-name="Trazado 5124" d="M-2369.425,1807.9s.285,4.6,1.176,4.666c.118.008,4.514.008,4.514.008l5.608-.032a1.82,1.82,0,0,0-1.677-1.638c-1.64-.286-4.385-1.438-5.378-3.606C-2366.223,1805.014-2369.425,1807.9-2369.425,1807.9Z" transform="translate(2369.748 -1700.817)" fill="#232323"/>
      <path id="Trazado_5125" data-name="Trazado 5125" d="M-2360.041,1741.871s-1.468,9.386-6.942,26.045-6.223,23.877-6.223,23.877l-5.873-.164s-.05-18.208,2.473-26.587.545-30.2.545-30.2Z" transform="translate(2379.079 -1684.23)" fill="#193540"/>
      <path id="Trazado_5126" data-name="Trazado 5126" d="M-2365.782,1735.508a227.813,227.813,0,0,1-2.24,31.51c-2.447,17.363-1.617,24.739-1.617,24.739l-5.861.2s-3.5-17.372-2.5-26.065-4.8-29.827-4.8-29.827Z" transform="translate(2387.675 -1684.385)" fill="#193540"/>
      <path id="Trazado_5127" data-name="Trazado 5127" d="M-2376.831,1690.318l2.766,2.047,4-.841c-.055-.364-.319-1.875-.559-3.242-.015-.077-.029-.161-.042-.24-.206-1.164-.384-2.163-.384-2.163l-3.732-1.86-1.392-.691c0,.025.108,1.291.123,1.477A11.951,11.951,0,0,1-2376.831,1690.318Z" transform="translate(2387.381 -1672.294)" fill="url(#linear-gradient)"/>
      <path id="Trazado_5128" data-name="Trazado 5128" d="M-2371.877,1690.8c-.087-.037-5.435-1.613-6.015-1.423s-.922,1.315-.922,1.315l8.746,1.978A4.344,4.344,0,0,0-2371.877,1690.8Z" transform="translate(2388.904 -1673.692)" fill="#f4f4f4"/>
      <path id="Trazado_5129" data-name="Trazado 5129" d="M-2383.881,1726.914c.906,4.135,15.99,4.625,19.879.872.442-.428.461-2.418.3-5.1-.327-5.244-1.374-13.131-1.415-17.16a31.935,31.935,0,0,0-.644-5.744,46.651,46.651,0,0,0-1.913-6.875s-7.368-2.382-8.746-1.977C-2383.064,1692.88-2384.787,1722.779-2383.881,1726.914Z" transform="translate(2386.509 -1674.045)" fill="#fff"/>
      <path id="Trazado_5130" data-name="Trazado 5130" d="M-2376.635,1725.279c-.327-5.243-1.374-13.13-1.415-17.16a31.936,31.936,0,0,0-.643-5.744l-4.432-.782S-2387.458,1719.293-2376.635,1725.279Z" transform="translate(2399.439 -1676.527)" fill="#f4f4f4"/>
      <path id="Trazado_5131" data-name="Trazado 5131" d="M-2380.177,1722.556a1.044,1.044,0,0,0,.332,1.207,2.022,2.022,0,0,1,.9,1.844c-.145.574-1.537,1.51-2.02,1.36s-1.464-.907-1.358-1.21-.661-2.657.516-3.563a.95.95,0,0,1,1.34-.094A.958.958,0,0,1-2380.177,1722.556Z" transform="translate(2400.582 -1681.225)" fill="url(#linear-gradient)"/>
      <path id="Trazado_5132" data-name="Trazado 5132" d="M-2390.744,1692.321s4.314.666,7.76,5.741,5.71,8.849,5.075,10.679-6.417,8.174-7.415,8.174a2.673,2.673,0,0,1-2.7-2.356s4.072-6.1,3.27-7.016c-.343-.39-5.286-4.4-5.992-2.591C-2391.912,1707.949-2390.744,1692.321-2390.744,1692.321Z" transform="translate(2406.201 -1674.378)" fill="#fff"/>
      <path id="Trazado_5133" data-name="Trazado 5133" d="M-2375.993,1685.068c.819,1.568,3.873,2.924,5.148,3.423-.015-.077-.029-.161-.043-.24-.206-1.164-.384-2.163-.384-2.163l-3.731-1.86C-2375.828,1684.215-2376.33,1684.423-2375.993,1685.068Z" transform="translate(2387.594 -1672.503)" fill="#ea8888" opacity="0.2"/>
      <path id="Trazado_5134" data-name="Trazado 5134" d="M-2369.611,1683.025s-6.731,2.1-7.975-2.113-2.949-6.778,1.3-8.3,5.559-.159,6.316,1.146S-2367.893,1682.367-2369.611,1683.025Z" transform="translate(2387.747 -1669.656)" fill="url(#linear-gradient)"/>
      <path id="Trazado_5135" data-name="Trazado 5135" d="M-2365.179,1672.824s-.389,5.057-1.406,4.829-1.941-.4-1.779,1.128,1.584,3.3-1.544,3.543-7.7-8.113-6.851-9.68C-2374.316,1668.12-2361.638,1667.311-2365.179,1672.824Z" transform="translate(2381.896 -1668.966)" fill="#2b2b2b"/>
    </g>
    <g id="Grupo_22909" data-name="Grupo 22909" transform="translate(12.053 28.689)">
      <g id="Grupo_22907" data-name="Grupo 22907" transform="translate(15.39 17.846)">
        <path id="Trazado_5136" data-name="Trazado 5136" d="M-2325.145,1734.149a9.9,9.9,0,0,0,4.226.169c1.643-.494,4.466.317,4.921.916s.288.837-.524,1.042-3.688,1.434-5.578.724a15.068,15.068,0,0,0-4.355-.736Z" transform="translate(2347.46 -1708.839)" fill="url(#linear-gradient)"/>
        <path id="Trazado_5137" data-name="Trazado 5137" d="M-2316.74,1704.085s2.9,20.615,7.7,22.462a105.873,105.873,0,0,0,15.942,3.184s.758-.615.574-3.121c0,0-10.973-4.029-12.532-6.223-2.32-3.26,1.44-13.321-1.471-16.383S-2314.339,1699.628-2316.74,1704.085Z" transform="translate(2316.74 -1701.206)" fill="#437795"/>
      </g>
      <path id="Trazado_5138" data-name="Trazado 5138" d="M-2294.011,1798.492v-4.533h-7.077a.349.349,0,0,1-.347-.347v-.72a.349.349,0,0,1,.347-.347h7.077v-25.584a1.306,1.306,0,0,1,1.306-1.306h1.4a1.306,1.306,0,0,1,1.306,1.306v25.584h7.077a.349.349,0,0,1,.347.347v.721a.349.349,0,0,1-.347.347H-2290v4.533c5.121.384,9.219,2.228,10.372,4.61h-24.757C-2303.232,1800.724-2299.131,1798.879-2294.011,1798.492Z" transform="translate(2309.77 -1698.294)" fill="url(#linear-gradient-5)"/>
      <path id="Trazado_5139" data-name="Trazado 5139" d="M-2320.728,1757.836a36.2,36.2,0,0,0,2.833,4.054c3.118,3.936,6.511,7.18,7.1,10.248a13.945,13.945,0,0,0,.548,1.963c.247.7.552,1.441.9,2.205a67.972,67.972,0,0,0,5.277,9.02c3.414,5.06,6.626,9.282,6.626,9.282l5.889-.25c-.236-.59-2.8-7.577-6.24-16.114l-4.31-10.708q-.286-.712-.57-1.417l-1.289-3.2-5.795-14.4s-12.894-4.884-14.233-1.719C-2325.09,1749.408-2324.191,1751.964-2320.728,1757.836Z" transform="translate(2337.095 -1693.677)" fill="#193540"/>
      <path id="Trazado_5140" data-name="Trazado 5140" d="M-2332.6,1807.486s.288,4.882,1.229,4.952c.125.009,10.756,0,10.756,0a2.029,2.029,0,0,0-1.817-1.779c-1.732-.3-4.632-1.52-5.685-3.809C-2329.226,1804.441-2332.6,1807.486-2332.6,1807.486Z" transform="translate(2372.446 -1707.625)" fill="#232323"/>
      <path id="Trazado_5141" data-name="Trazado 5141" d="M-2299.545,1789.889s-4.1,2.631-3.7,3.487c.053.114,2.316,4.168,2.316,4.168l2.919,5.158a1.921,1.921,0,0,0,.647-2.39c-.582-1.66-.932-4.786.556-6.818C-2295.24,1791.355-2299.545,1789.889-2299.545,1789.889Z" transform="translate(2325.751 -1703.909)" fill="#060632"/>
      <path id="Trazado_5142" data-name="Trazado 5142" d="M-2311.01,1746.268s16.288,10.138,18.093,16.911-21.529,21.228-21.529,21.228-2.559-2.258-3.011-3.918c0,0,10.548-12.637,12.836-15.469,1.405-1.74-20.777-6.022-23.487-10.238a10.3,10.3,0,0,1-1.739-7.76Z" transform="translate(2342.655 -1693.801)" fill="#193540"/>
      <path id="Rect치ngulo_5059" data-name="Rect치ngulo 5059" d="M-2280.381,1763.19h-26.5a4.517,4.517,0,0,0-4.517,4.517h0a4.517,4.517,0,0,0,4.517,4.517h26.5a4.517,4.517,0,0,0,4.517-4.517h0A4.517,4.517,0,0,0-2280.381,1763.19Z" transform="translate(2311.396 -1697.723)" fill="url(#linear-gradient-6)"/>
      <path id="Trazado_5143" data-name="Trazado 5143" d="M-2299.939,1697.974s6.427,3.593,10.3,2.59a9.141,9.141,0,0,0-2.466-2.233q.127-.566.223-1.063a25.068,25.068,0,0,0,.437-3l-2.961-2.653-1.991.422c-.038.2-.077.384-.127.572A9.506,9.506,0,0,1-2299.939,1697.974Z" transform="translate(2316.363 -1681.138)" fill="url(#linear-gradient)"/>
      <path id="Trazado_5144" data-name="Trazado 5144" d="M-2307.031,1718.093c.555,7.47-.176,18.829.455,20.8.544,1.7,6.739.692,9.212.122.915-.211,2.024-.509,3.168-.864,3.194-.989,6.674-2.4,7.047-3.45a.833.833,0,0,0,.034-.121h0c.006-.026.011-.053.015-.077a.971.971,0,0,0-.022-.359,7.488,7.488,0,0,1-.66-2.435c-.063-1.477-.054-3.217-.11-5.087a6.133,6.133,0,0,0-.028-.65v-.2c-.054-2.086-.164-4.28-.29-6.453-.077-1.366-.173-2.72-.28-4.016a53.549,53.549,0,0,0-1.153-8.2,13.165,13.165,0,0,0-4.232-6.53l-1.178-1.011a6.815,6.815,0,0,1-4.277-.57c-1.521-.722-2.048-1.24-2.312-1.045C-2305.158,1700.651-2307.687,1708.962-2307.031,1718.093Z" transform="translate(2319.35 -1682.595)" fill="#4f8faf"/>
      <path id="Trazado_5145" data-name="Trazado 5145" d="M-2301.33,1744.9c3.194-.989,6.674-2.4,7.047-3.45a.831.831,0,0,0,.034-.121h0a.266.266,0,0,1,.014-.077.975.975,0,0,0-.021-.359,7.486,7.486,0,0,1-.66-2.435c-.063-1.477-.053-3.217-.11-5.087a6.091,6.091,0,0,0-.029-.651v-.2l-12.062-5.472A28.08,28.08,0,0,0-2301.33,1744.9Z" transform="translate(2326.488 -1689.35)" fill="#437795"/>
      <path id="Trazado_5146" data-name="Trazado 5146" d="M-2297.589,1692.613a7.86,7.86,0,0,0,4.643,4.654,25.068,25.068,0,0,0,.437-3l-2.961-2.653-1.99.422C-2297.5,1692.237-2297.541,1692.427-2297.589,1692.613Z" transform="translate(2317.433 -1681.138)" fill="#ed6966" opacity="0.2"/>
      <path id="Trazado_5147" data-name="Trazado 5147" d="M-2293.9,1691.85s-6.354.717-6.74-3.247-1.465-6.54,2.575-7.166,4.977.811,5.427,2.1S-2292.262,1691.565-2293.9,1691.85Z" transform="translate(2320 -1678.744)" fill="url(#linear-gradient)"/>
      <path id="Trazado_5148" data-name="Trazado 5148" d="M-2299.337,1688.109a6.53,6.53,0,0,1,6.187-5.806c3.961-.374,1.752-3.783,1.33-4.326,0,0-3.035.417-6.146.93C-2304.5,1679.986-2299.98,1687.291-2299.337,1688.109Z" transform="translate(2318.72 -1677.977)" fill="#2b2b2b"/>
      <path id="Trazado_5149" data-name="Trazado 5149" d="M-2337.274,1735.357l15.744.337,4.476-13.776.556.18-4.732,14.563-16.065-.344Z" transform="translate(2371.928 -1688.159)" fill="#353535"/>
      <g id="Grupo_22908" data-name="Grupo 22908" transform="translate(16.669 19.172)">
        <path id="Trazado_5150" data-name="Trazado 5150" d="M-2322.882,1738.274a9.891,9.891,0,0,0,4.179.633c1.686-.31,4.4.808,4.79,1.453s.194.864-.636.979-3.823,1.018-5.624.1a15.038,15.038,0,0,0-4.248-1.211Z" transform="translate(2342.589 -1711.121)" fill="url(#linear-gradient-9)"/>
        <path id="Trazado_5151" data-name="Trazado 5151" d="M-2314.945,1705.331s.61,20.809,5.18,23.174a105.861,105.861,0,0,0,15.494,4.922s.823-.529.915-3.039c0,0-10.463-5.214-11.77-7.563-1.946-3.5,2.9-13.081.344-16.446S-2312.066,1701.166-2314.945,1705.331Z" transform="translate(2314.945 -1702.931)" fill="#4f8faf"/>
      </g>
    </g>
    <path id="Trazado_5152" data-name="Trazado 5152" d="M-2491.713,1708.172l6.453,76.767s.676,4.653-2.785,4.662c-5.691.014-28.327,0-28.327,0s4.283-.969,4.231-3.15c-.061-2.569-7.546-79.006-7.546-79.006Z" transform="translate(2692.816 -1656.116)" fill="url(#linear-gradient-5)"/>
    <path id="Trazado_5153" data-name="Trazado 5153" d="M-2513.911,1787.787c1.119,0,22.741.071,28.281,0,2.416-.03,2.843-2.151,2.859-3.518a6.826,6.826,0,0,0-.077-1.142l-.167-2-.428-5.085-.378-4.493-.486-5.774-.409-4.873-4.587-54.548-27.971-.726s3.15,31.989,5.382,55.274c.249,2.594.486,5.082.7,7.4q.107,1.112.206,2.172c.207,2.2.4,4.225.56,6.013.087.941.167,1.816.239,2.618.284,3.141.451,5.147.453,5.527a3.2,3.2,0,0,1-.054.622C-2510.24,1787.707-2513.491,1787.787-2513.911,1787.787Z" transform="translate(2688.525 -1655.696)" fill="#333"/>
    <path id="Trazado_5154" data-name="Trazado 5154" d="M-2438.355,1654.02l-15.727,63.169-2.151,8.652-7.325,29.425h-136.078l27-101.246Z" transform="translate(2707.388 -1643.737)" fill="#333"/>
    <path id="Trazado_5155" data-name="Trazado 5155" d="M-2577.268,1654.019l2.18.726-24.487,102.714-2.9-2.2Z" transform="translate(2846.301 -1643.736)" fill="#333"/>
    <path id="Trazado_5156" data-name="Trazado 5156" d="M-2431.626,1788h-135.241l-3.734-2.2h136.077Z" transform="translate(2678.352 -1674.272)" fill="url(#linear-gradient-11)"/>
    <rect id="Rect치ngulo_5060" data-name="Rect치ngulo 5060" width="29.281" height="1.391" transform="translate(169.953 132.122)" fill="#333"/>
    <path id="Trazado_5157" data-name="Trazado 5157" d="M-2598.315,1736.607l22.08-81.249h132.827v-1.338h-134.5l-22.007,82.407Z" transform="translate(2712.658 -1643.736)" fill="#333"/>
    <path id="Trazado_5158" data-name="Trazado 5158" d="M-2516.083,1788.661l.154,1.064,27.538,5.563-.378-4.493-.18-2.134Z" transform="translate(2693.233 -1674.936)" fill="#191919"/>
    <path id="Trazado_5159" data-name="Trazado 5159" d="M-2517.272,1809.95c1.119,0,22.741.071,28.281,0,2.416-.03,2.843-2.151,2.859-3.518l-27.408-5.157c.284,3.141.451,5.147.453,5.527a3.162,3.162,0,0,1-.055.621C-2513.6,1809.87-2516.852,1809.95-2517.272,1809.95Z" transform="translate(2691.886 -1677.859)" fill="#191919"/>
    <path id="Trazado_5160" data-name="Trazado 5160" d="M-2576.363,1756.427l59.777,20.5,7.325-29.425Z" transform="translate(2760.415 -1665.397)" fill="#191919"/>
    <path id="Trazado_5161" data-name="Trazado 5161" d="M-2442.747,1654.56h-134.285l-21.788,81.368h136.508Z" transform="translate(2711.153 -1643.862)" fill="url(#linear-gradient-12)"/>
    <path id="Trazado_5162" data-name="Trazado 5162" d="M-2483.007,1772.226a4.6,4.6,0,0,1,4.315-3.611,2.891,2.891,0,0,1,3,2.779,2.888,2.888,0,0,1-.089.832,4.6,4.6,0,0,1-4.315,3.611,2.892,2.892,0,0,1-3-2.78A2.882,2.882,0,0,1-2483.007,1772.226Z" transform="translate(2655.19 -1670.29)" fill="#191919"/>
    <path id="Trazado_5163" data-name="Trazado 5163" d="M-2592.4,1733.175h125.734l14.239-56.723,1.092-4.35.932-3.71,2.184-8.7H-2572.14l-2.4,8.7-1.023,3.71-1.2,4.35Z" transform="translate(2711.688 -1645.051)" fill="#fff"/>
    <path id="Trazado_5164" data-name="Trazado 5164" d="M-2592.4,1668.392h124.134l2.184-8.7H-2590Z" transform="translate(2729.55 -1645.051)" fill="#bee0ed"/>
    <g id="Grupo_22911" data-name="Grupo 22911" transform="translate(248.621 17.484)">
      <path id="Trazado_5165" data-name="Trazado 5165" d="M-2584.378,1663.394a.821.821,0,0,1,.86.781.818.818,0,0,1-.044.307,1.486,1.486,0,0,1-1.358,1.088.823.823,0,0,1-.861-.782.819.819,0,0,1,.044-.306A1.486,1.486,0,0,1-2584.378,1663.394Z" transform="translate(2593.285 -1663.393)" fill="#dee9fd"/>
      <path id="Trazado_5166" data-name="Trazado 5166" d="M-2579.677,1663.394a.82.82,0,0,1,.86.78.816.816,0,0,1-.044.308,1.486,1.486,0,0,1-1.358,1.088.822.822,0,0,1-.86-.782.808.808,0,0,1,.043-.306A1.486,1.486,0,0,1-2579.677,1663.394Z" transform="translate(2584.971 -1663.393)" fill="#dee9fd"/>
      <path id="Trazado_5167" data-name="Trazado 5167" d="M-2575.97,1664.482a1.486,1.486,0,0,1,1.359-1.088.821.821,0,0,1,.86.78.811.811,0,0,1-.043.308,1.486,1.486,0,0,1-1.359,1.088.822.822,0,0,1-.859-.782A.8.8,0,0,1-2575.97,1664.482Z" transform="translate(2576.014 -1663.393)" fill="#dee9fd"/>
    </g>
    <g id="Grupo_22912" data-name="Grupo 22912" transform="translate(158.464 42.147)">
      <path id="Trazado_5168" data-name="Trazado 5168" d="M-2473.413,1702.1a9.036,9.036,0,0,1,8.255-6.6,5.191,5.191,0,0,1,4.216,1.909,5.5,5.5,0,0,1,.845,4.823,9.035,9.035,0,0,1-8.255,6.6,5.192,5.192,0,0,1-4.216-1.909A5.5,5.5,0,0,1-2473.413,1702.1Zm1.267,4.494a4.674,4.674,0,0,0,3.8,1.7,8.474,8.474,0,0,0,7.737-6.2,4.981,4.981,0,0,0-.75-4.365,4.669,4.669,0,0,0-3.8-1.7,8.473,8.473,0,0,0-7.737,6.2,4.982,4.982,0,0,0,.751,4.365Z" transform="translate(2473.639 -1695.495)" fill="#9b235c"/>
      <path id="Trazado_5169" data-name="Trazado 5169" d="M-2466.95,1704.654l.664-4.641.052-.21h1.869l-.052.21-1.651,4.641Z" transform="translate(2472.994 -1696.493)" fill="#9b235c"/>
      <path id="Trazado_5170" data-name="Trazado 5170" d="M-2462.884,1707.183l-.419,1.68h-1.7l.419-1.68Z" transform="translate(2470.019 -1698.203)" fill="#9b235c"/>
    </g>
    <g id="Grupo_22913" data-name="Grupo 22913" transform="translate(154.405 57.915)">
      <path id="Trazado_5171" data-name="Trazado 5171" d="M-2468.13,1722.624a9.036,9.036,0,0,1,8.255-6.6,5.191,5.191,0,0,1,4.216,1.909,5.5,5.5,0,0,1,.845,4.823,9.035,9.035,0,0,1-8.255,6.6,5.194,5.194,0,0,1-4.216-1.909A5.5,5.5,0,0,1-2468.13,1722.624Zm1.268,4.494a4.675,4.675,0,0,0,3.8,1.7,8.474,8.474,0,0,0,7.737-6.2,4.981,4.981,0,0,0-.75-4.365,4.669,4.669,0,0,0-3.8-1.7,8.474,8.474,0,0,0-7.737,6.2,4.984,4.984,0,0,0,.749,4.365Z" transform="translate(2468.356 -1716.017)" fill="#9b235c"/>
      <path id="Trazado_5172" data-name="Trazado 5172" d="M-2461.666,1725.178l.664-4.641.052-.209h1.865l-.052.209-1.65,4.641Z" transform="translate(2467.713 -1717.016)" fill="#9b235c"/>
      <path id="Trazado_5173" data-name="Trazado 5173" d="M-2457.6,1727.707l-.419,1.68h-1.7l.419-1.68Z" transform="translate(2464.738 -1718.726)" fill="#9b235c"/>
    </g>
    <g id="Grupo_22914" data-name="Grupo 22914" transform="translate(134.636 35.301)">
      <path id="Trazado_5174" data-name="Trazado 5174" d="M-2450.7,1701a.569.569,0,0,1-.593-.542.572.572,0,0,1,.029-.209,1.029,1.029,0,0,1,.939-.751h13.38a.569.569,0,0,1,.594.544.567.567,0,0,1-.03.208,1.031,1.031,0,0,1-.939.751Z" transform="translate(2456.782 -1689.576)" fill="#bee0ed"/>
      <path id="Trazado_5175" data-name="Trazado 5175" d="M-2454.156,1687.335a1.03,1.03,0,0,1,.939-.751h13.38a.569.569,0,0,1,.594.542.577.577,0,0,1-.03.21,1.03,1.03,0,0,1-.938.751h-13.383a.569.569,0,0,1-.592-.546A.569.569,0,0,1-2454.156,1687.335Z" transform="translate(2461.893 -1686.583)" fill="#bee0ed"/>
      <path id="Trazado_5176" data-name="Trazado 5176" d="M-2449.773,1704.727a.57.57,0,0,1-.593-.544.574.574,0,0,1,.029-.207,1.03,1.03,0,0,1,.939-.751h13.38a.57.57,0,0,1,.594.544.555.555,0,0,1-.03.208,1.031,1.031,0,0,1-.939.751Z" transform="translate(2455.14 -1690.439)" fill="#bee0ed"/>
      <path id="Trazado_5177" data-name="Trazado 5177" d="M-2449.407,1707.7a1.029,1.029,0,0,1,.939-.751h13.38a.57.57,0,0,1,.594.544.583.583,0,0,1-.03.208,1.031,1.031,0,0,1-.939.751h-13.38a.57.57,0,0,1-.594-.542A.573.573,0,0,1-2449.407,1707.7Z" transform="translate(2453.496 -1691.302)" fill="#bee0ed"/>
      <path id="Trazado_5178" data-name="Trazado 5178" d="M-2445.419,1721.524a.569.569,0,0,1-.593-.544.574.574,0,0,1,.029-.207,1.03,1.03,0,0,1,.939-.751h13.38a.569.569,0,0,1,.594.544.592.592,0,0,1-.03.208,1.031,1.031,0,0,1-.939.751Z" transform="translate(2447.44 -1694.331)" fill="#bee0ed"/>
      <path id="Trazado_5179" data-name="Trazado 5179" d="M-2444.492,1725.25a.569.569,0,0,1-.593-.544.575.575,0,0,1,.029-.208,1.029,1.029,0,0,1,.939-.751h13.382a.569.569,0,0,1,.594.544.591.591,0,0,1-.03.207,1.03,1.03,0,0,1-.938.751Z" transform="translate(2445.8 -1695.195)" fill="#bee0ed"/>
      <path id="Trazado_5180" data-name="Trazado 5180" d="M-2444.124,1728.223a1.029,1.029,0,0,1,.939-.751h13.38a.568.568,0,0,1,.593.544.582.582,0,0,1-.029.207,1.031,1.031,0,0,1-.939.751h-13.38a.571.571,0,0,1-.594-.545A.6.6,0,0,1-2444.124,1728.223Z" transform="translate(2444.154 -1696.058)" fill="#bee0ed"/>
    </g>
    <path id="Trazado_5181" data-name="Trazado 5181" d="M-2579.585,1681.947l.934-3.745a1.712,1.712,0,0,1,1.56-1.249h107.247a.947.947,0,0,1,.987.9.971.971,0,0,1-.05.346l-.934,3.745a1.712,1.712,0,0,1-1.561,1.248h-107.247a.946.946,0,0,1-.987-.9A.94.94,0,0,1-2579.585,1681.947Z" transform="translate(2722.522 -1649.05)" fill="#bee0ed"/>
    <path id="Trazado_5182" data-name="Trazado 5182" d="M-2578.079,1676.954l-1.557,6.244h76.026a1.713,1.713,0,0,0,1.561-1.248l.934-3.745a.945.945,0,0,0-.591-1.2.946.946,0,0,0-.346-.049Z" transform="translate(2754.731 -1649.051)" fill="url(#linear-gradient-13)"/>
    <g id="Grupo_22905" data-name="Grupo 22905" transform="translate(154.97 29.831)">
      <path id="Trazado_5183" data-name="Trazado 5183" d="M-2459.694,1679.522l-.12.479H-2461l.619,2.045h-.628l-.608-2.107.1-.418Z" transform="translate(2467.719 -1679.477)" fill="#437795"/>
      <path id="Trazado_5184" data-name="Trazado 5184" d="M-2457.014,1679.463c.671,0,.982.573.8,1.306a1.6,1.6,0,0,1-1.444,1.306c-.675,0-.982-.573-.8-1.306A1.608,1.608,0,0,1-2457.014,1679.463Zm-.526,2.11c.336,0,.641-.343.756-.8s-.016-.8-.347-.8-.641.347-.756.8.012.8.347.8Z" transform="translate(2461.801 -1679.463)" fill="#437795"/>
      <path id="Trazado_5185" data-name="Trazado 5185" d="M-2452.819,1681.807a.828.828,0,0,1,.768-.645.467.467,0,0,1,.49.444.468.468,0,0,1-.034.2.83.83,0,0,1-.768.645.47.47,0,0,1-.49-.449A.465.465,0,0,1-2452.819,1681.807Zm.53.317c.144,0,.275-.148.317-.317s0-.317-.154-.317-.275.148-.317.317,0,.318.154.318Z" transform="translate(2452.854 -1679.857)" fill="#437795"/>
      <path id="Trazado_5186" data-name="Trazado 5186" d="M-2453.87,1679.522l1.213,2.525h-.429l-1.214-2.525Z" transform="translate(2455.061 -1679.477)" fill="#437795"/>
      <path id="Trazado_5187" data-name="Trazado 5187" d="M-2455.257,1680.126a.828.828,0,0,1,.768-.645.467.467,0,0,1,.49.444.469.469,0,0,1-.034.2.829.829,0,0,1-.768.645.47.47,0,0,1-.49-.446A.476.476,0,0,1-2455.257,1680.126Zm.845,0c.043-.173,0-.317-.154-.317s-.275.148-.317.317,0,.317.154.317.277-.147.32-.317Z" transform="translate(2457.164 -1679.467)" fill="#437795"/>
    </g>
    <g id="Grupo_22915" data-name="Grupo 22915" transform="translate(178.173 38.297)">
      <path id="Trazado_5188" data-name="Trazado 5188" d="M-2568.586,1719.449a1.067,1.067,0,0,1-1.116-1.013,1.075,1.075,0,0,1,.057-.4h0a1.926,1.926,0,0,1,1.762-1.411h62.538a1.066,1.066,0,0,1,1.116,1.013,1.071,1.071,0,0,1-.057.4h0a1.929,1.929,0,0,1-1.762,1.411Z" transform="translate(2572.09 -1696.541)" fill="#bee0ed"/>
      <path id="Trazado_5189" data-name="Trazado 5189" d="M-2567.064,1725.545a1.066,1.066,0,0,1-1.115-1.013,1.074,1.074,0,0,1,.057-.4,1.927,1.927,0,0,1,1.763-1.411h62.538a1.065,1.065,0,0,1,1.115,1.013,1.074,1.074,0,0,1-.057.4,1.927,1.927,0,0,1-1.762,1.411Z" transform="translate(2569.4 -1697.953)" fill="#bee0ed"/>
      <path id="Trazado_5190" data-name="Trazado 5190" d="M-2566.536,1730.5a1.927,1.927,0,0,1,1.762-1.411h62.538a1.066,1.066,0,0,1,1.115,1.014,1.053,1.053,0,0,1-.056.4,1.928,1.928,0,0,1-1.762,1.41h-62.538a1.065,1.065,0,0,1-1.115-1.012A1.053,1.053,0,0,1-2566.536,1730.5Z" transform="translate(2566.594 -1699.429)" fill="#bee0ed"/>
      <path id="Trazado_5191" data-name="Trazado 5191" d="M-2524.364,1705.78a2.424,2.424,0,0,1-2.215,1.773h-6.975a1.34,1.34,0,0,1-1.4-1.275,1.325,1.325,0,0,1,.071-.5l3.372-13.522a2.423,2.423,0,0,1,2.215-1.773h6.975a1.341,1.341,0,0,1,1.4,1.274,1.344,1.344,0,0,1-.072.5Z" transform="translate(2562.089 -1690.483)" fill="#bee0ed"/>
      <path id="Trazado_5192" data-name="Trazado 5192" d="M-2508.652,1705.78a2.422,2.422,0,0,1-2.215,1.773h-6.975a1.34,1.34,0,0,1-1.4-1.275,1.341,1.341,0,0,1,.071-.5l3.371-13.522a2.423,2.423,0,0,1,2.216-1.773h6.975a1.34,1.34,0,0,1,1.4,1.275,1.342,1.342,0,0,1-.072.5Z" transform="translate(2534.305 -1690.483)" fill="#bee0ed"/>
      <path id="Trazado_5193" data-name="Trazado 5193" d="M-2493.227,1705.78a2.423,2.423,0,0,1-2.216,1.773h-6.975a1.34,1.34,0,0,1-1.4-1.275,1.325,1.325,0,0,1,.071-.5l3.371-13.522a2.422,2.422,0,0,1,2.215-1.773h6.975a1.34,1.34,0,0,1,1.4,1.275,1.342,1.342,0,0,1-.072.5Z" transform="translate(2507.033 -1690.483)" fill="#bee0ed"/>
    </g>
    <path id="Trazado_5194" data-name="Trazado 5194" d="M-2575.668,1704.578l2.774-11.125a4.059,4.059,0,0,1,3.713-2.972h23.614a2.245,2.245,0,0,1,2.347,2.14,2.252,2.252,0,0,1-.119.832l-2.774,11.125a4.059,4.059,0,0,1-3.713,2.972h-23.615a2.245,2.245,0,0,1-2.346-2.14A2.249,2.249,0,0,1-2575.668,1704.578Z" transform="translate(2793.93 -1652.185)" fill="#bee0ed"/>
    <g id="Grupo_22916" data-name="Grupo 22916" transform="translate(223.214 41.21)">
      <path id="Trazado_5195" data-name="Trazado 5195" d="M-2571.7,1695.628a.512.512,0,0,1-.534-.489.519.519,0,0,1,.026-.187h0a.928.928,0,0,1,.845-.677h22.064a.512.512,0,0,1,.535.489.507.507,0,0,1-.027.187h0a.927.927,0,0,1-.845.676Z" transform="translate(2573.536 -1694.274)" fill="#437795"/>
      <path id="Trazado_5196" data-name="Trazado 5196" d="M-2570.858,1699.015a.512.512,0,0,1-.534-.49.512.512,0,0,1,.026-.186h0a.927.927,0,0,1,.845-.677h22.064a.512.512,0,0,1,.535.489.5.5,0,0,1-.027.188h0a.927.927,0,0,1-.845.676Z" transform="translate(2572.042 -1695.059)" fill="#437795"/>
      <path id="Trazado_5197" data-name="Trazado 5197" d="M-2570.522,1701.725a.928.928,0,0,1,.845-.677h22.064a.512.512,0,0,1,.535.49.507.507,0,0,1-.027.187.927.927,0,0,1-.845.677h-22.064a.513.513,0,0,1-.535-.49A.53.53,0,0,1-2570.522,1701.725Z" transform="translate(2570.549 -1695.844)" fill="#437795"/>
      <path id="Trazado_5198" data-name="Trazado 5198" d="M-2568.728,1704.842h5.206a.512.512,0,0,1,.535.489.508.508,0,0,1-.027.188.927.927,0,0,1-.845.677h-5.206a.513.513,0,0,1-.535-.489.513.513,0,0,1,.027-.187A.927.927,0,0,1-2568.728,1704.842Z" transform="translate(2585.729 -1696.723)" fill="#437795"/>
    </g>
    <path id="Trazado_5199" data-name="Trazado 5199" d="M-2435.891,1745.261l1.454-5.839a2.129,2.129,0,0,1,1.948-1.559h12.386a1.177,1.177,0,0,1,1.232,1.12,1.165,1.165,0,0,1-.062.439l-1.455,5.839a2.13,2.13,0,0,1-1.948,1.559h-12.386a1.178,1.178,0,0,1-1.232-1.119A1.183,1.183,0,0,1-2435.891,1745.261Z" transform="translate(2562.15 -1663.165)" fill="#bee0ed"/>
    <g id="Grupo_22918" data-name="Grupo 22918" transform="translate(128.857 76.23)">
      <path id="Trazado_5200" data-name="Trazado 5200" d="M-2433.81,1740.567a.269.269,0,0,1-.281-.257.267.267,0,0,1,.014-.1.486.486,0,0,1,.443-.355h11.573a.268.268,0,0,1,.28.257.269.269,0,0,1-.014.1.486.486,0,0,1-.443.355Z" transform="translate(2434.77 -1739.857)" fill="#437795"/>
      <path id="Trazado_5201" data-name="Trazado 5201" d="M-2433.367,1742.343a.269.269,0,0,1-.281-.257.26.26,0,0,1,.014-.1.486.486,0,0,1,.443-.355h11.573a.268.268,0,0,1,.28.257.27.27,0,0,1-.014.1.486.486,0,0,1-.443.355Z" transform="translate(2433.989 -1740.268)" fill="#437795"/>
      <path id="Trazado_5202" data-name="Trazado 5202" d="M-2433.191,1743.765a.486.486,0,0,1,.443-.355h11.573a.268.268,0,0,1,.28.257.269.269,0,0,1-.014.1.485.485,0,0,1-.443.355h-11.573a.269.269,0,0,1-.281-.257A.268.268,0,0,1-2433.191,1743.765Z" transform="translate(2433.205 -1740.68)" fill="#437795"/>
      <path id="Trazado_5203" data-name="Trazado 5203" d="M-2432.251,1745.4h2.73a.268.268,0,0,1,.28.257.265.265,0,0,1-.014.1h0a.486.486,0,0,1-.443.355h-2.73a.269.269,0,0,1-.281-.257.267.267,0,0,1,.014-.1A.486.486,0,0,1-2432.251,1745.4Z" transform="translate(2441.171 -1741.141)" fill="#437795"/>
    </g>
    <g id="Grupo_22921" data-name="Grupo 22921" transform="translate(145.095 74.143)">
      <g id="Grupo_22919" data-name="Grupo 22919" transform="translate(5.786 2.617)">
        <path id="Trazado_5204" data-name="Trazado 5204" d="M-2556.767,1741.613a.4.4,0,0,1-.421-.382.4.4,0,0,1,.021-.151h0a.727.727,0,0,1,.665-.532h23.586a.4.4,0,0,1,.421.381.4.4,0,0,1-.021.151h0a.728.728,0,0,1-.665.532Z" transform="translate(2618.035 -1740.547)" fill="#9b235c"/>
        <path id="Trazado_5205" data-name="Trazado 5205" d="M-2556.2,1743.913a.4.4,0,0,1-.421-.382.409.409,0,0,1,.021-.15h0a.728.728,0,0,1,.665-.532h23.589a.4.4,0,0,1,.421.382.4.4,0,0,1-.021.151h0a.727.727,0,0,1-.665.532Z" transform="translate(2617.024 -1741.081)" fill="#9b235c"/>
        <path id="Trazado_5206" data-name="Trazado 5206" d="M-2555.33,1745.25h23.586a.4.4,0,0,1,.421.382.4.4,0,0,1-.021.151.727.727,0,0,1-.665.532H-2555.6a.4.4,0,0,1-.421-.382.4.4,0,0,1,.022-.151A.727.727,0,0,1-2555.33,1745.25Z" transform="translate(2615.963 -1741.637)" fill="#9b235c"/>
        <path id="Trazado_5207" data-name="Trazado 5207" d="M-2517.145,1741.613a.4.4,0,0,1-.421-.382.4.4,0,0,1,.021-.151h0a.727.727,0,0,1,.665-.532h23.586a.4.4,0,0,1,.421.381.4.4,0,0,1-.021.151h0a.727.727,0,0,1-.665.532Z" transform="translate(2547.971 -1740.547)" fill="#9b235c"/>
        <path id="Trazado_5208" data-name="Trazado 5208" d="M-2516.572,1743.913a.4.4,0,0,1-.421-.382.409.409,0,0,1,.021-.15h0a.726.726,0,0,1,.665-.532h23.586a.4.4,0,0,1,.421.382.4.4,0,0,1-.021.151h0a.727.727,0,0,1-.665.532Z" transform="translate(2546.958 -1741.081)" fill="#9b235c"/>
        <path id="Trazado_5209" data-name="Trazado 5209" d="M-2515.708,1745.25h23.586a.4.4,0,0,1,.421.382.406.406,0,0,1-.022.151.727.727,0,0,1-.665.532h-23.586a.4.4,0,0,1-.421-.382.4.4,0,0,1,.022-.151A.726.726,0,0,1-2515.708,1745.25Z" transform="translate(2545.9 -1741.637)" fill="#9b235c"/>
        <path id="Trazado_5210" data-name="Trazado 5210" d="M-2478.741,1741.613a.4.4,0,0,1-.421-.382.408.408,0,0,1,.022-.151h0a.728.728,0,0,1,.665-.532h23.586a.4.4,0,0,1,.421.381.4.4,0,0,1-.021.151h0a.728.728,0,0,1-.665.532Z" transform="translate(2480.063 -1740.547)" fill="#9b235c"/>
        <path id="Trazado_5211" data-name="Trazado 5211" d="M-2478.168,1743.913a.4.4,0,0,1-.42-.382.4.4,0,0,1,.021-.15h0a.726.726,0,0,1,.665-.532h23.586a.4.4,0,0,1,.421.382.412.412,0,0,1-.022.151h0a.728.728,0,0,1-.665.532Z" transform="translate(2479.05 -1741.081)" fill="#9b235c"/>
        <path id="Trazado_5212" data-name="Trazado 5212" d="M-2477.969,1745.782a.727.727,0,0,1,.665-.532h23.586a.4.4,0,0,1,.421.382.406.406,0,0,1-.022.151.726.726,0,0,1-.665.532h-23.586a.4.4,0,0,1-.421-.382A.414.414,0,0,1-2477.969,1745.782Z" transform="translate(2477.991 -1741.637)" fill="#9b235c"/>
      </g>
      <g id="Grupo_22920" data-name="Grupo 22920" transform="translate(0)">
        <path id="Trazado_5213" data-name="Trazado 5213" d="M-2561.888,1747.459h90.964a1.989,1.989,0,0,0,1.819-1.451l1.816-7.286a1.3,1.3,0,0,0-.206-1.125,1.221,1.221,0,0,0-.99-.456h-90.964a1.989,1.989,0,0,0-1.819,1.451l-1.816,7.286a1.3,1.3,0,0,0,.206,1.124A1.224,1.224,0,0,0-2561.888,1747.459Zm93.4-9.783a.7.7,0,0,1,.57.251.76.76,0,0,1,.108.667l-1.816,7.286a1.447,1.447,0,0,1-1.3,1.046h-90.964a.7.7,0,0,1-.57-.251.76.76,0,0,1-.109-.667l1.816-7.286a1.447,1.447,0,0,1,1.3-1.046Z" transform="translate(2563.133 -1737.141)" fill="#9b235c"/>
      </g>
    </g>
    <g id="Grupo_22925" data-name="Grupo 22925" transform="translate(239.701 91.07)">
      <path id="Trazado_5214" data-name="Trazado 5214" d="M-2591.425,1759.173l.052.039c.784.6,6.119,4.239,18.1,2.628q.123.691.231,1.368c.036.226.072.451.1.673s.066.439.1.658v.011c.031.22.062.436.091.655s.058.434.085.651.053.426.077.639v.01c.024.211.048.421.071.631s.044.42.066.629.041.416.059.621.037.41.054.615c.012.149.024.3.036.445.01.122.019.244.027.366.008.1.015.207.021.307,0,.055.008.108.01.163.011.173.022.345.032.517s.02.368.029.551a.755.755,0,0,0,0,.105c.005.138.012.273.018.408,0,.108.009.214.012.32.011.343.02.681.026,1.017,0,.154.006.307.007.461v1.1c0,.143,0,.285-.006.426,0,.121,0,.243-.008.362v.127c0,.125-.007.25-.01.375s-.009.266-.014.4-.013.285-.02.425c-.007.166-.015.329-.026.493v.045c-.009.161-.02.32-.03.479s-.023.334-.036.5-.026.329-.041.492-.029.326-.045.485-.03.307-.047.461c0,.019,0,.036-.005.055-.016.148-.033.294-.051.44s-.038.307-.058.461v.012c-.02.154-.039.3-.062.453s-.042.3-.065.45v.012c-.022.146-.045.29-.068.435v.007c-.024.147-.049.292-.077.437s-.051.291-.077.436c-.032.177-.065.353-.1.526-.022.109-.043.217-.065.325-.028.136-.056.27-.084.4l-.012.052c-.026.125-.055.25-.083.373s-.062.271-.1.405q-.1.414-.2.816c-.031.122-.064.243-.1.363s-.068.25-.1.375c-.025.091-.051.182-.077.273s-.052.179-.077.268c-.021.07-.043.14-.065.211l-.113.363c-.078.24-.158.477-.239.711-.04.117-.081.23-.122.347s-.083.23-.124.342q-.173.461-.353.906c-.035.088-.072.176-.108.264q-.077.189-.159.375c-.043.1-.084.194-.128.29q-.348.781-.715,1.5c-.048.094-.1.187-.145.279-.115.219-.232.433-.349.643-.04.077-.083.148-.125.221s-.077.135-.117.2-.091.154-.136.231c-.105.175-.21.346-.317.515-.036.059-.077.117-.109.174q-.173.271-.348.529-.062.093-.125.183-.41.6-.821,1.125c-.05.065-.1.13-.154.194q-.4.5-.784.941c-.082.093-.164.186-.246.276l-.021.023-.146.159c-.292.316-.579.605-.854.87l-.137.131q-.136.13-.27.25c-.089.08-.168.154-.249.223l-.012.011-.238.206q-.2.17-.391.323l-.105.083c-.23.182-.443.342-.64.483l-.172.121c-.164.113-.313.211-.444.293q-.059.039-.113.071c-.077.049-.153.093-.213.129l-.041.023-.04.024c-.145.083-.224.121-.224.121q-1.149-.373-2.228-.825a28.972,28.972,0,0,1-10.953-8.115c-.008-.008-.015-.018-.022-.027-6.106-7.2-8.731-16.513-9.853-22.68-.123-.683-.23-1.328-.319-1.926C-2595.406,1765.252-2591.8,1759.8-2591.425,1759.173Z" transform="translate(2607.446 -1759.173)" fill="#30596d"/>
      <g id="Grupo_22924" data-name="Grupo 22924" transform="translate(1.752 1.831)">
        <path id="Trazado_5215" data-name="Trazado 5215" d="M-2605.379,1771.4c1.021,5.622,3.416,14.114,8.982,20.676l.02.025a26.423,26.423,0,0,0,9.988,7.4q.981.411,2.028.752c1.047.34.072-.035.2-.111l.036-.021.038-.021c.057-.033.121-.073.2-.118.033-.02.068-.042.1-.065.119-.077.255-.164.4-.267l.154-.11c.179-.128.374-.274.583-.439l.1-.077c.114-.092.23-.191.356-.294l.217-.188.011-.009.23-.2c.082-.077.163-.149.246-.23.042-.039.084-.077.125-.119.252-.242.513-.506.779-.794.045-.047.089-.1.134-.144a.164.164,0,0,1,.019-.021c.077-.082.149-.166.224-.251q.353-.4.715-.858l.138-.177c.25-.322.5-.663.748-1.026l.113-.168q.16-.235.317-.482c.033-.052.067-.1.1-.158.1-.154.193-.307.289-.469l.124-.211c.036-.061.071-.122.107-.184s.077-.133.114-.2c.107-.192.214-.384.319-.586.044-.084.088-.168.132-.254q.333-.652.652-1.364c.04-.088.077-.176.116-.264.049-.113.1-.231.145-.342.034-.077.067-.16.1-.24q.166-.4.321-.827c.038-.1.077-.207.113-.311s.077-.21.111-.317q.111-.32.217-.648c.035-.11.068-.22.1-.331.02-.064.04-.128.059-.192.025-.081.05-.162.077-.244s.049-.165.072-.248c.033-.114.064-.231.1-.342s.061-.22.089-.331q.1-.366.187-.744c.03-.123.059-.245.087-.37l.077-.34.011-.048c.026-.121.052-.243.077-.367.02-.1.039-.2.059-.3.031-.159.061-.318.091-.48.024-.131.049-.264.071-.4s.046-.264.068-.4v-.007c.021-.132.042-.264.062-.4v-.011c.021-.136.041-.274.06-.411s.038-.275.056-.412v-.011c.019-.141.035-.28.052-.421s.031-.267.046-.4c0-.016,0-.033.006-.05.015-.138.029-.277.043-.417s.029-.294.041-.443.025-.3.038-.449.023-.3.033-.455.019-.291.028-.437v-.041c.009-.149.017-.3.024-.449.006-.128.012-.257.018-.384s.009-.24.013-.363.007-.23.01-.342v-.115c0-.109.006-.22.007-.33,0-.129,0-.258,0-.389v-1c0-.139,0-.279-.006-.419-.005-.307-.013-.615-.024-.927,0-.1-.007-.194-.01-.292,0-.123-.011-.247-.016-.372a.665.665,0,0,0,0-.1c-.009-.167-.017-.335-.026-.5s-.018-.315-.028-.472c0-.049-.006-.1-.009-.148-.006-.1-.012-.189-.019-.283-.007-.111-.016-.222-.024-.333-.01-.135-.021-.27-.033-.406q-.023-.28-.048-.56c-.017-.187-.035-.377-.054-.567s-.038-.384-.06-.573-.043-.384-.065-.575v-.009c-.023-.194-.046-.384-.071-.582s-.051-.4-.077-.593-.054-.4-.082-.6v-.011q-.043-.3-.088-.6c-.03-.2-.062-.408-.1-.615q-.1-.617-.209-1.247c-10.925,1.469-15.788-1.848-16.5-2.4l-.047-.036c-.344.569-3.63,5.542-14.611,8.042C-2605.585,1770.194-2605.491,1770.781-2605.379,1771.4Z" transform="translate(2605.666 -1761.568)" fill="#569dc1"/>
        <path id="Trazado_5216" data-name="Trazado 5216" d="M-2605.664,1761.556l6.948,38.577c.072-.042.162-.094.269-.161.033-.02.068-.041.1-.065.119-.077.255-.164.4-.267l.154-.111c.179-.127.374-.274.583-.439l.1-.077c.115-.092.23-.19.357-.294l.217-.187.012-.01.23-.2c.082-.077.163-.149.246-.23.042-.039.084-.077.125-.119.252-.242.512-.505.779-.794.045-.047.089-.1.134-.145a.173.173,0,0,1,.019-.021c.077-.082.149-.166.224-.251q.353-.4.715-.858c.046-.058.093-.118.138-.177q.374-.484.748-1.026c.038-.055.075-.11.113-.167.107-.157.212-.317.317-.482.033-.052.067-.1.1-.158.1-.154.193-.307.289-.469l.124-.211.107-.185c.038-.067.077-.133.114-.2.107-.192.213-.384.319-.586.045-.084.088-.168.132-.254q.333-.652.651-1.364c.04-.088.077-.176.116-.264.049-.113.1-.23.144-.342.034-.077.067-.16.1-.24q.165-.4.321-.827c.039-.1.077-.207.113-.311s.077-.21.111-.316q.111-.32.218-.648c.035-.11.068-.22.1-.331.02-.064.04-.128.059-.192.025-.082.05-.162.077-.244s.049-.165.072-.248c.033-.113.064-.227.1-.342s.061-.22.089-.331c.064-.244.127-.492.187-.744.03-.123.059-.245.087-.37s.052-.227.077-.34l.011-.048c.026-.121.052-.243.077-.366.02-.1.039-.2.059-.3.031-.159.061-.318.091-.48.024-.131.048-.264.071-.4s.046-.264.067-.4v-.007c.021-.132.042-.264.062-.4v-.011c.021-.136.041-.273.06-.411s.038-.275.056-.412v-.012c.018-.14.035-.28.052-.421s.031-.267.046-.4c0-.016,0-.033.005-.05.015-.138.029-.277.043-.417s.028-.294.041-.443.025-.3.038-.448.023-.3.033-.455.019-.29.028-.437v-.041c.009-.149.017-.3.024-.449.006-.128.012-.257.018-.384s.009-.24.013-.363.007-.231.01-.342v-.115c0-.109.006-.219.007-.33,0-.129,0-.258,0-.389v-1c0-.139,0-.279-.006-.419-.006-.307-.013-.615-.024-.927,0-.1-.007-.194-.01-.292,0-.123-.011-.247-.016-.372a.665.665,0,0,0,0-.1c-.008-.167-.017-.335-.026-.5s-.018-.313-.028-.472c0-.049-.006-.1-.009-.148-.006-.094-.012-.189-.019-.283-.007-.111-.015-.222-.024-.333-.01-.135-.021-.27-.033-.406q-.023-.28-.048-.56c-.017-.187-.036-.377-.055-.567s-.038-.384-.06-.573-.043-.384-.064-.575v-.009c-.023-.194-.046-.384-.072-.582s-.051-.4-.077-.593-.054-.4-.082-.6v-.011q-.042-.3-.088-.6c-.03-.2-.062-.408-.1-.615q-.1-.615-.209-1.248C-2600.954,1765.626-2605.664,1761.556-2605.664,1761.556Z" transform="translate(2620.224 -1761.556)" fill="#437795"/>
      </g>
    </g>
  </g>
</svg>
