<svg xmlns="http://www.w3.org/2000/svg" xmlns:xlink="http://www.w3.org/1999/xlink" width="273.79" height="278.185" viewBox="0 0 273.79 278.185">
  <defs>
    <filter id="Trazado_39750" x="78.109" y="31.781" width="16.381" height="20.219" filterUnits="userSpaceOnUse">
      <feOffset dy="1" input="SourceAlpha"/>
      <feGaussianBlur stdDeviation="1" result="blur"/>
      <feFlood flood-opacity="0.161"/>
      <feComposite operator="in" in2="blur"/>
      <feComposite in="SourceGraphic"/>
    </filter>
    <filter id="Trazado_39751" x="174.485" y="31.576" width="26.479" height="20.424" filterUnits="userSpaceOnUse">
      <feOffset dy="1" input="SourceAlpha"/>
      <feGaussianBlur stdDeviation="1" result="blur-2"/>
      <feFlood flood-opacity="0.161"/>
      <feComposite operator="in" in2="blur-2"/>
      <feComposite in="SourceGraphic"/>
    </filter>
    <filter id="Trazado_39752" x="123.441" y="27.576" width="27.697" height="32.629" filterUnits="userSpaceOnUse">
      <feOffset dy="3" input="SourceAlpha"/>
      <feGaussianBlur stdDeviation="3" result="blur-3"/>
      <feFlood flood-opacity="0.161"/>
      <feComposite operator="in" in2="blur-3"/>
      <feComposite in="SourceGraphic"/>
    </filter>
    <filter id="Trazado_39753" x="225.485" y="31.576" width="26.645" height="20.629" filterUnits="userSpaceOnUse">
      <feOffset dy="1" input="SourceAlpha"/>
      <feGaussianBlur stdDeviation="1" result="blur-4"/>
      <feFlood flood-opacity="0.161"/>
      <feComposite operator="in" in2="blur-4"/>
      <feComposite in="SourceGraphic"/>
    </filter>
    <filter id="Trazado_39723" x="78.293" y="132.576" width="15.934" height="20.424" filterUnits="userSpaceOnUse">
      <feOffset dy="1" input="SourceAlpha"/>
      <feGaussianBlur stdDeviation="1" result="blur-5"/>
      <feFlood flood-opacity="0.161"/>
      <feComposite operator="in" in2="blur-5"/>
      <feComposite in="SourceGraphic"/>
    </filter>
    <filter id="Trazado_39725" x="179.52" y="132.576" width="15.873" height="20.629" filterUnits="userSpaceOnUse">
      <feOffset dy="1" input="SourceAlpha"/>
      <feGaussianBlur stdDeviation="1" result="blur-6"/>
      <feFlood flood-opacity="0.161"/>
      <feComposite operator="in" in2="blur-6"/>
      <feComposite in="SourceGraphic"/>
    </filter>
    <filter id="Trazado_39727" x="129.109" y="132.781" width="16.381" height="20.219" filterUnits="userSpaceOnUse">
      <feOffset dy="1" input="SourceAlpha"/>
      <feGaussianBlur stdDeviation="1" result="blur-7"/>
      <feFlood flood-opacity="0.161"/>
      <feComposite operator="in" in2="blur-7"/>
      <feComposite in="SourceGraphic"/>
    </filter>
    <filter id="Trazado_39729" x="224.441" y="128.576" width="27.697" height="32.629" filterUnits="userSpaceOnUse">
      <feOffset dy="3" input="SourceAlpha"/>
      <feGaussianBlur stdDeviation="3" result="blur-8"/>
      <feFlood flood-opacity="0.161"/>
      <feComposite operator="in" in2="blur-8"/>
      <feComposite in="SourceGraphic"/>
    </filter>
    <filter id="Trazado_39733" x="78.234" y="81.576" width="15.836" height="20.629" filterUnits="userSpaceOnUse">
      <feOffset dy="1" input="SourceAlpha"/>
      <feGaussianBlur stdDeviation="1" result="blur-9"/>
      <feFlood flood-opacity="0.161"/>
      <feComposite operator="in" in2="blur-9"/>
      <feComposite in="SourceGraphic"/>
    </filter>
    <filter id="Trazado_39735" x="173.354" y="77.576" width="27.668" height="32.629" filterUnits="userSpaceOnUse">
      <feOffset dy="3" input="SourceAlpha"/>
      <feGaussianBlur stdDeviation="3" result="blur-10"/>
      <feFlood flood-opacity="0.161"/>
      <feComposite operator="in" in2="blur-10"/>
      <feComposite in="SourceGraphic"/>
    </filter>
    <filter id="Trazado_39737" x="129.52" y="81.576" width="15.873" height="20.629" filterUnits="userSpaceOnUse">
      <feOffset dy="1" input="SourceAlpha"/>
      <feGaussianBlur stdDeviation="1" result="blur-11"/>
      <feFlood flood-opacity="0.161"/>
      <feComposite operator="in" in2="blur-11"/>
      <feComposite in="SourceGraphic"/>
    </filter>
    <filter id="Trazado_39739" x="225.485" y="81.576" width="26.479" height="20.424" filterUnits="userSpaceOnUse">
      <feOffset dy="1" input="SourceAlpha"/>
      <feGaussianBlur stdDeviation="1" result="blur-12"/>
      <feFlood flood-opacity="0.161"/>
      <feComposite operator="in" in2="blur-12"/>
      <feComposite in="SourceGraphic"/>
    </filter>
    <filter id="Trazado_39731" x="79.223" y="183.781" width="11.742" height="20.219" filterUnits="userSpaceOnUse">
      <feOffset dy="1" input="SourceAlpha"/>
      <feGaussianBlur stdDeviation="1" result="blur-13"/>
      <feFlood flood-opacity="0.161"/>
      <feComposite operator="in" in2="blur-13"/>
      <feComposite in="SourceGraphic"/>
    </filter>
    <filter id="Trazado_39713" x="179.234" y="183.576" width="15.836" height="20.629" filterUnits="userSpaceOnUse">
      <feOffset dy="1" input="SourceAlpha"/>
      <feGaussianBlur stdDeviation="1" result="blur-14"/>
      <feFlood flood-opacity="0.161"/>
      <feComposite operator="in" in2="blur-14"/>
      <feComposite in="SourceGraphic"/>
    </filter>
    <filter id="Trazado_39715" x="129.293" y="183.576" width="15.934" height="20.424" filterUnits="userSpaceOnUse">
      <feOffset dy="1" input="SourceAlpha"/>
      <feGaussianBlur stdDeviation="1" result="blur-15"/>
      <feFlood flood-opacity="0.161"/>
      <feComposite operator="in" in2="blur-15"/>
      <feComposite in="SourceGraphic"/>
    </filter>
    <filter id="Trazado_39717" x="230.109" y="183.781" width="16.381" height="20.219" filterUnits="userSpaceOnUse">
      <feOffset dy="1" input="SourceAlpha"/>
      <feGaussianBlur stdDeviation="1" result="blur-16"/>
      <feFlood flood-opacity="0.161"/>
      <feComposite operator="in" in2="blur-16"/>
      <feComposite in="SourceGraphic"/>
    </filter>
  </defs>
  <g id="Grupo_28647" data-name="Grupo 28647" transform="translate(12842.79 9785)">
    <g id="Trazado_39745" data-name="Trazado 39745" transform="translate(-12781 -9773)" fill="#30cd35">
      <path d="M 48.5 48.5 L 0.5 48.5 L 0.5 0.5 L 48.5 0.5 L 48.5 48.5 Z" stroke="none"/>
      <path d="M 1 1 L 1 48 L 48 48 L 48 1 L 1 1 M 0 0 L 49 0 L 49 49 L 0 49 L 0 0 Z" stroke="none" fill="#114811"/>
    </g>
    <g transform="matrix(1, 0, 0, 1, -12842.79, -9785)" filter="url(#Trazado_39750)">
      <path id="Trazado_39750-2" data-name="Trazado 39750" d="M28.089,15.717H29.7v2.2H28.089V21H25.247V17.914h-5.8l-.127-1.709,5.9-9.424h2.871Zm-6.113,0h3.271V10.59l-.059-.02-.225.4Z" transform="translate(61.79 27)" fill="#fff"/>
    </g>
    <g id="Trazado_39746" data-name="Trazado 39746" transform="translate(-12680 -9773)" fill="#ff3009">
      <path d="M 48.5 48.5 L 0.5 48.5 L 0.5 0.5 L 48.5 0.5 L 48.5 48.5 Z" stroke="none"/>
      <path d="M 1 1 L 1 48 L 48 48 L 48 1 L 1 1 M 0 0 L 49 0 L 49 49 L 0 49 L 0 0 Z" stroke="none" fill="#6d1300"/>
    </g>
    <g transform="matrix(1, 0, 0, 1, -12842.79, -9785)" filter="url(#Trazado_39751)">
      <path id="Trazado_39751-2" data-name="Trazado 39751" d="M20.438,21H17.586V9.3H14.7V7.289l5.742-.508Zm14.736,0H25.467V19.135l4.6-4.932a11.13,11.13,0,0,0,1.416-1.929,3.128,3.128,0,0,0,.42-1.46,2.2,2.2,0,0,0-.483-1.47,1.7,1.7,0,0,0-1.372-.571,1.773,1.773,0,0,0-1.5.669,2.855,2.855,0,0,0-.513,1.782H25.262l-.02-.059a4.3,4.3,0,0,1,1.265-3.257,4.744,4.744,0,0,1,3.54-1.333A4.936,4.936,0,0,1,33.5,7.719a3.92,3.92,0,0,1,1.255,3.047,4.276,4.276,0,0,1-.708,2.378A23.487,23.487,0,0,1,31.707,16l-2.529,2.754.02.049h5.977Z" transform="translate(162.79 27)" fill="#fff"/>
    </g>
    <g id="Trazado_39747" data-name="Trazado 39747" transform="translate(-12730 -9773)" fill="#feff03">
      <path d="M 48.5 48.5 L 0.5 48.5 L 0.5 0.5 L 48.5 0.5 L 48.5 48.5 Z" stroke="none"/>
      <path d="M 1 1 L 1 48 L 48 48 L 48 1 L 1 1 M 0 0 L 49 0 L 49 49 L 0 49 L 0 0 Z" stroke="none" fill="#7f7f00"/>
    </g>
    <g transform="matrix(1, 0, 0, 1, -12842.79, -9785)" filter="url(#Trazado_39752)">
      <path id="Trazado_39752-2" data-name="Trazado 39752" d="M29.017,10.551a3.256,3.256,0,0,1-.562,1.885,3.738,3.738,0,0,1-1.548,1.279,4.18,4.18,0,0,1,1.787,1.367,3.337,3.337,0,0,1,.654,2.031,3.641,3.641,0,0,1-1.338,3.032,5.465,5.465,0,0,1-3.5,1.06,5.518,5.518,0,0,1-3.521-1.06,3.636,3.636,0,0,1-1.343-3.032,3.348,3.348,0,0,1,.649-2.036,4.221,4.221,0,0,1,1.792-1.372,3.706,3.706,0,0,1-1.553-1.274,3.254,3.254,0,0,1-.557-1.88,3.618,3.618,0,0,1,1.24-2.935A4.923,4.923,0,0,1,24.5,6.576a4.947,4.947,0,0,1,3.271,1.04A3.6,3.6,0,0,1,29.017,10.551ZM26.5,16.913a2.105,2.105,0,0,0-.557-1.53,1.922,1.922,0,0,0-1.445-.575,1.887,1.887,0,0,0-1.44.575,2.139,2.139,0,0,0-.542,1.53,2.1,2.1,0,0,0,.547,1.535,1.941,1.941,0,0,0,1.455.56,1.907,1.907,0,0,0,1.436-.565A2.106,2.106,0,0,0,26.5,16.913Zm-.322-6.235A2.032,2.032,0,0,0,25.721,9.3,1.541,1.541,0,0,0,24.5,8.773a1.522,1.522,0,0,0-1.221.513,2.067,2.067,0,0,0-.439,1.392,2.107,2.107,0,0,0,.444,1.411,1.534,1.534,0,0,0,1.235.522,1.512,1.512,0,0,0,1.216-.522A2.107,2.107,0,0,0,26.175,10.678Z" transform="translate(112.79 27)" fill="#393900"/>
    </g>
    <g id="Trazado_39748" data-name="Trazado 39748" transform="translate(-12629 -9773)" fill="#ff3009">
      <path d="M 48.5 48.5 L 0.5 48.5 L 0.5 0.5 L 48.5 0.5 L 48.5 48.5 Z" stroke="none"/>
      <path d="M 1 1 L 1 48 L 48 48 L 48 1 L 1 1 M 0 0 L 49 0 L 49 49 L 0 49 L 0 0 Z" stroke="none" fill="#6d1300"/>
    </g>
    <g transform="matrix(1, 0, 0, 1, -12842.79, -9785)" filter="url(#Trazado_39753)">
      <path id="Trazado_39753-2" data-name="Trazado 39753" d="M20.438,21H17.586V9.3H14.7V7.289l5.742-.508ZM31.18,6.576a6.8,6.8,0,0,1,1.479.151,7.727,7.727,0,0,1,1.362.444l-.508,2.09a10.494,10.494,0,0,0-1.147-.337A5.4,5.4,0,0,0,31.2,8.813a2.548,2.548,0,0,0-2.085.972,3.941,3.941,0,0,0-.728,2.69l.029.049a3.3,3.3,0,0,1,1.211-.781,4.547,4.547,0,0,1,1.65-.283,3.606,3.606,0,0,1,2.983,1.353,5.363,5.363,0,0,1,1.079,3.452,4.927,4.927,0,0,1-1.333,3.545,4.558,4.558,0,0,1-3.452,1.4,4.776,4.776,0,0,1-3.672-1.528,5.99,5.99,0,0,1-1.416-4.233V12.67a6.087,6.087,0,0,1,1.611-4.443A5.487,5.487,0,0,1,31.18,6.576Zm-.654,7.041a3.238,3.238,0,0,0-1.348.253,2.041,2.041,0,0,0-.859.692v.946a4.628,4.628,0,0,0,.61,2.593,1.875,1.875,0,0,0,1.626.907,1.623,1.623,0,0,0,1.411-.8,3.444,3.444,0,0,0,.532-1.945,3.15,3.15,0,0,0-.537-1.911A1.693,1.693,0,0,0,30.525,13.617Z" transform="translate(213.79 27)" fill="#fff"/>
    </g>
    <g id="Trazado_39722" data-name="Trazado 39722" transform="translate(-12781 -9671)" fill="#30cd35">
      <path d="M 48.5 48.5 L 0.5 48.5 L 0.5 0.5 L 48.5 0.5 L 48.5 48.5 Z" stroke="none"/>
      <path d="M 1 1 L 1 48 L 48 48 L 48 1 L 1 1 M 0 0 L 49 0 L 49 49 L 0 49 L 0 0 Z" stroke="none" fill="#114811"/>
    </g>
    <g transform="matrix(1, 0, 0, 1, -12842.79, -9785)" filter="url(#Trazado_39723)">
      <path id="Trazado_39723-2" data-name="Trazado 39723" d="M29.437,21H19.729V19.135l4.6-4.932a11.13,11.13,0,0,0,1.416-1.929,3.128,3.128,0,0,0,.42-1.46,2.2,2.2,0,0,0-.483-1.47,1.7,1.7,0,0,0-1.372-.571,1.773,1.773,0,0,0-1.5.669,2.855,2.855,0,0,0-.513,1.782H19.524l-.02-.059A4.3,4.3,0,0,1,20.77,7.909a4.744,4.744,0,0,1,3.54-1.333,4.936,4.936,0,0,1,3.452,1.143,3.92,3.92,0,0,1,1.255,3.047,4.276,4.276,0,0,1-.708,2.378A23.487,23.487,0,0,1,25.97,16L23.44,18.754l.02.049h5.977Z" transform="translate(61.79 128)" fill="#fff"/>
    </g>
    <g id="Trazado_39724" data-name="Trazado 39724" transform="translate(-12680 -9671)" fill="#30cd35">
      <path d="M 48.5 48.5 L 0.5 48.5 L 0.5 0.5 L 48.5 0.5 L 48.5 48.5 Z" stroke="none"/>
      <path d="M 1 1 L 1 48 L 48 48 L 48 1 L 1 1 M 0 0 L 49 0 L 49 49 L 0 49 L 0 0 Z" stroke="none" fill="#114811"/>
    </g>
    <g transform="matrix(1, 0, 0, 1, -12842.79, -9785)" filter="url(#Trazado_39725)">
      <path id="Trazado_39725-2" data-name="Trazado 39725" d="M25.442,6.576a6.8,6.8,0,0,1,1.479.151,7.727,7.727,0,0,1,1.362.444l-.508,2.09a10.494,10.494,0,0,0-1.147-.337,5.4,5.4,0,0,0-1.167-.112,2.548,2.548,0,0,0-2.085.972,3.941,3.941,0,0,0-.728,2.69l.029.049a3.3,3.3,0,0,1,1.211-.781,4.547,4.547,0,0,1,1.65-.283,3.606,3.606,0,0,1,2.983,1.353A5.363,5.363,0,0,1,29.6,16.264a4.927,4.927,0,0,1-1.333,3.545,4.558,4.558,0,0,1-3.452,1.4,4.776,4.776,0,0,1-3.672-1.528,5.99,5.99,0,0,1-1.416-4.233V12.67a6.087,6.087,0,0,1,1.611-4.443A5.487,5.487,0,0,1,25.442,6.576Zm-.654,7.041a3.238,3.238,0,0,0-1.348.253,2.041,2.041,0,0,0-.859.692v.946a4.628,4.628,0,0,0,.61,2.593,1.875,1.875,0,0,0,1.626.907,1.623,1.623,0,0,0,1.411-.8,3.444,3.444,0,0,0,.532-1.945,3.15,3.15,0,0,0-.537-1.911A1.693,1.693,0,0,0,24.788,13.617Z" transform="translate(162.79 128)" fill="#fff"/>
    </g>
    <g id="Trazado_39726" data-name="Trazado 39726" transform="translate(-12730 -9671)" fill="#30cd35">
      <path d="M 48.5 48.5 L 0.5 48.5 L 0.5 0.5 L 48.5 0.5 L 48.5 48.5 Z" stroke="none"/>
      <path d="M 1 1 L 1 48 L 48 48 L 48 1 L 1 1 M 0 0 L 49 0 L 49 49 L 0 49 L 0 0 Z" stroke="none" fill="#114811"/>
    </g>
    <g transform="matrix(1, 0, 0, 1, -12842.79, -9785)" filter="url(#Trazado_39727)">
      <path id="Trazado_39727-2" data-name="Trazado 39727" d="M28.089,15.717H29.7v2.2H28.089V21H25.247V17.914h-5.8l-.127-1.709,5.9-9.424h2.871Zm-6.113,0h3.271V10.59l-.059-.02-.225.4Z" transform="translate(112.79 128)" fill="#fff"/>
    </g>
    <g id="Trazado_39728" data-name="Trazado 39728" transform="translate(-12629 -9671)" fill="#feff03">
      <path d="M 48.5 48.5 L 0.5 48.5 L 0.5 0.5 L 48.5 0.5 L 48.5 48.5 Z" stroke="none"/>
      <path d="M 1 1 L 1 48 L 48 48 L 48 1 L 1 1 M 0 0 L 49 0 L 49 49 L 0 49 L 0 0 Z" stroke="none" fill="#7f7f00"/>
    </g>
    <g transform="matrix(1, 0, 0, 1, -12842.79, -9785)" filter="url(#Trazado_39729)">
      <path id="Trazado_39729-2" data-name="Trazado 39729" d="M29.017,10.551a3.256,3.256,0,0,1-.562,1.885,3.738,3.738,0,0,1-1.548,1.279,4.18,4.18,0,0,1,1.787,1.367,3.337,3.337,0,0,1,.654,2.031,3.641,3.641,0,0,1-1.338,3.032,5.465,5.465,0,0,1-3.5,1.06,5.518,5.518,0,0,1-3.521-1.06,3.636,3.636,0,0,1-1.343-3.032,3.348,3.348,0,0,1,.649-2.036,4.221,4.221,0,0,1,1.792-1.372,3.706,3.706,0,0,1-1.553-1.274,3.254,3.254,0,0,1-.557-1.88,3.618,3.618,0,0,1,1.24-2.935A4.923,4.923,0,0,1,24.5,6.576a4.947,4.947,0,0,1,3.271,1.04A3.6,3.6,0,0,1,29.017,10.551ZM26.5,16.913a2.105,2.105,0,0,0-.557-1.53,1.922,1.922,0,0,0-1.445-.575,1.887,1.887,0,0,0-1.44.575,2.139,2.139,0,0,0-.542,1.53,2.1,2.1,0,0,0,.547,1.535,1.941,1.941,0,0,0,1.455.56,1.907,1.907,0,0,0,1.436-.565A2.106,2.106,0,0,0,26.5,16.913Zm-.322-6.235A2.032,2.032,0,0,0,25.721,9.3,1.541,1.541,0,0,0,24.5,8.773a1.522,1.522,0,0,0-1.221.513,2.067,2.067,0,0,0-.439,1.392,2.107,2.107,0,0,0,.444,1.411,1.534,1.534,0,0,0,1.235.522,1.512,1.512,0,0,0,1.216-.522A2.107,2.107,0,0,0,26.175,10.678Z" transform="translate(213.79 128)" fill="#393900"/>
    </g>
    <g id="Trazado_39732" data-name="Trazado 39732" transform="translate(-12781 -9722)" fill="#30cd35">
      <path d="M 48.5 48.5 L 0.5 48.5 L 0.5 0.5 L 48.5 0.5 L 48.5 48.5 Z" stroke="none"/>
      <path d="M 1 1 L 1 48 L 48 48 L 48 1 L 1 1 M 0 0 L 49 0 L 49 49 L 0 49 L 0 0 Z" stroke="none" fill="#114811"/>
    </g>
    <g transform="matrix(1, 0, 0, 1, -12842.79, -9785)" filter="url(#Trazado_39733)">
      <path id="Trazado_39733-2" data-name="Trazado 39733" d="M22.61,12.68h1.6a1.945,1.945,0,0,0,1.5-.532,2.107,2.107,0,0,0,.488-1.479,1.925,1.925,0,0,0-.488-1.377A1.854,1.854,0,0,0,24.3,8.773a2,2,0,0,0-1.348.469,1.542,1.542,0,0,0-.547,1.23H19.642l-.02-.059A3.235,3.235,0,0,1,20.9,7.66a5.1,5.1,0,0,1,3.32-1.084,5.461,5.461,0,0,1,3.521,1.055,3.635,3.635,0,0,1,1.313,3.008A3.019,3.019,0,0,1,28.47,12.4a3.9,3.9,0,0,1-1.611,1.3,3.626,3.626,0,0,1,1.8,1.289,3.39,3.39,0,0,1,.62,2.021,3.694,3.694,0,0,1-1.421,3.071,5.7,5.7,0,0,1-3.638,1.118,5.568,5.568,0,0,1-3.4-1.05,3.354,3.354,0,0,1-1.372-2.964l.02-.059h2.764a1.734,1.734,0,0,0,.586,1.346,2.13,2.13,0,0,0,1.484.529,2.162,2.162,0,0,0,1.558-.546,1.951,1.951,0,0,0,.571-1.481,2.143,2.143,0,0,0-.562-1.642,2.352,2.352,0,0,0-1.655-.521h-1.6Z" transform="translate(61.79 77)" fill="#fff"/>
    </g>
    <g id="Trazado_39734" data-name="Trazado 39734" transform="translate(-12680 -9722)" fill="#feff03">
      <path d="M 48.5 48.5 L 0.5 48.5 L 0.5 0.5 L 48.5 0.5 L 48.5 48.5 Z" stroke="none"/>
      <path d="M 1 1 L 1 48 L 48 48 L 48 1 L 1 1 M 0 0 L 49 0 L 49 49 L 0 49 L 0 0 Z" stroke="none" fill="#7f7f00"/>
    </g>
    <g transform="matrix(1, 0, 0, 1, -12842.79, -9785)" filter="url(#Trazado_39735)">
      <path id="Trazado_39735-2" data-name="Trazado 39735" d="M23.841,19.008a2.293,2.293,0,0,0,1.831-.832,3.573,3.573,0,0,0,.708-2.381v-.7a3.171,3.171,0,0,1-1.138.918,3.275,3.275,0,0,1-1.421.313,3.94,3.94,0,0,1-3.12-1.294,5.114,5.114,0,0,1-1.138-3.5,4.922,4.922,0,0,1,1.348-3.54,4.535,4.535,0,0,1,3.428-1.411,4.546,4.546,0,0,1,3.535,1.5,6.056,6.056,0,0,1,1.357,4.214v3.359a5.433,5.433,0,0,1-1.519,4.072,5.309,5.309,0,0,1-3.872,1.484,8.041,8.041,0,0,1-1.528-.152,6.923,6.923,0,0,1-1.46-.446l.332-2.068a6.941,6.941,0,0,0,1.255.356A7.91,7.91,0,0,0,23.841,19.008Zm.459-4.775a2.718,2.718,0,0,0,1.23-.264,2.317,2.317,0,0,0,.85-.7V11.957a4.25,4.25,0,0,0-.547-2.373,1.7,1.7,0,0,0-1.484-.811,1.632,1.632,0,0,0-1.4.8,3.4,3.4,0,0,0-.542,1.953,3.5,3.5,0,0,0,.493,1.958A1.582,1.582,0,0,0,24.3,14.232Z" transform="translate(162.79 77)" fill="#393900"/>
    </g>
    <g id="Trazado_39736" data-name="Trazado 39736" transform="translate(-12730 -9722)" fill="#30cd35">
      <path d="M 48.5 48.5 L 0.5 48.5 L 0.5 0.5 L 48.5 0.5 L 48.5 48.5 Z" stroke="none"/>
      <path d="M 1 1 L 1 48 L 48 48 L 48 1 L 1 1 M 0 0 L 49 0 L 49 49 L 0 49 L 0 0 Z" stroke="none" fill="#114811"/>
    </g>
    <g transform="matrix(1, 0, 0, 1, -12842.79, -9785)" filter="url(#Trazado_39737)">
      <path id="Trazado_39737-2" data-name="Trazado 39737" d="M25.442,6.576a6.8,6.8,0,0,1,1.479.151,7.727,7.727,0,0,1,1.362.444l-.508,2.09a10.494,10.494,0,0,0-1.147-.337,5.4,5.4,0,0,0-1.167-.112,2.548,2.548,0,0,0-2.085.972,3.941,3.941,0,0,0-.728,2.69l.029.049a3.3,3.3,0,0,1,1.211-.781,4.547,4.547,0,0,1,1.65-.283,3.606,3.606,0,0,1,2.983,1.353A5.363,5.363,0,0,1,29.6,16.264a4.927,4.927,0,0,1-1.333,3.545,4.558,4.558,0,0,1-3.452,1.4,4.776,4.776,0,0,1-3.672-1.528,5.99,5.99,0,0,1-1.416-4.233V12.67a6.087,6.087,0,0,1,1.611-4.443A5.487,5.487,0,0,1,25.442,6.576Zm-.654,7.041a3.238,3.238,0,0,0-1.348.253,2.041,2.041,0,0,0-.859.692v.946a4.628,4.628,0,0,0,.61,2.593,1.875,1.875,0,0,0,1.626.907,1.623,1.623,0,0,0,1.411-.8,3.444,3.444,0,0,0,.532-1.945,3.15,3.15,0,0,0-.537-1.911A1.693,1.693,0,0,0,24.788,13.617Z" transform="translate(112.79 77)" fill="#fff"/>
    </g>
    <g id="Trazado_39738" data-name="Trazado 39738" transform="translate(-12629 -9722)" fill="#ff3009">
      <path d="M 48.5 48.5 L 0.5 48.5 L 0.5 0.5 L 48.5 0.5 L 48.5 48.5 Z" stroke="none"/>
      <path d="M 1 1 L 1 48 L 48 48 L 48 1 L 1 1 M 0 0 L 49 0 L 49 49 L 0 49 L 0 0 Z" stroke="none" fill="#6d1300"/>
    </g>
    <g transform="matrix(1, 0, 0, 1, -12842.79, -9785)" filter="url(#Trazado_39739)">
      <path id="Trazado_39739-2" data-name="Trazado 39739" d="M20.438,21H17.586V9.3H14.7V7.289l5.742-.508Zm14.736,0H25.467V19.135l4.6-4.932a11.13,11.13,0,0,0,1.416-1.929,3.128,3.128,0,0,0,.42-1.46,2.2,2.2,0,0,0-.483-1.47,1.7,1.7,0,0,0-1.372-.571,1.773,1.773,0,0,0-1.5.669,2.855,2.855,0,0,0-.513,1.782H25.262l-.02-.059a4.3,4.3,0,0,1,1.265-3.257,4.744,4.744,0,0,1,3.54-1.333A4.936,4.936,0,0,1,33.5,7.719a3.92,3.92,0,0,1,1.255,3.047,4.276,4.276,0,0,1-.708,2.378A23.487,23.487,0,0,1,31.707,16l-2.529,2.754.02.049h5.977Z" transform="translate(213.79 77)" fill="#fff"/>
    </g>
    <g id="Trazado_39730" data-name="Trazado 39730" transform="translate(-12781 -9621)" fill="#30cd35">
      <path d="M 48.5 48.5 L 0.5 48.5 L 0.5 0.5 L 48.5 0.5 L 48.5 48.5 Z" stroke="none"/>
      <path d="M 1 1 L 1 48 L 48 48 L 48 1 L 1 1 M 0 0 L 49 0 L 49 49 L 0 49 L 0 0 Z" stroke="none" fill="#114811"/>
    </g>
    <g transform="matrix(1, 0, 0, 1, -12842.79, -9785)" filter="url(#Trazado_39731)">
      <path id="Trazado_39731-2" data-name="Trazado 39731" d="M26.175,21H23.323V9.3H20.433V7.289l5.742-.508Z" transform="translate(61.79 179)" fill="#fff"/>
    </g>
    <g id="Trazado_39712" data-name="Trazado 39712" transform="translate(-12680 -9621)" fill="#30cd35">
      <path d="M 48.5 48.5 L 0.5 48.5 L 0.5 0.5 L 48.5 0.5 L 48.5 48.5 Z" stroke="none"/>
      <path d="M 1 1 L 1 48 L 48 48 L 48 1 L 1 1 M 0 0 L 49 0 L 49 49 L 0 49 L 0 0 Z" stroke="none" fill="#114811"/>
    </g>
    <g transform="matrix(1, 0, 0, 1, -12842.79, -9785)" filter="url(#Trazado_39713)">
      <path id="Trazado_39713-2" data-name="Trazado 39713" d="M22.61,12.68h1.6a1.945,1.945,0,0,0,1.5-.532,2.107,2.107,0,0,0,.488-1.479,1.925,1.925,0,0,0-.488-1.377A1.854,1.854,0,0,0,24.3,8.773a2,2,0,0,0-1.348.469,1.542,1.542,0,0,0-.547,1.23H19.642l-.02-.059A3.235,3.235,0,0,1,20.9,7.66a5.1,5.1,0,0,1,3.32-1.084,5.461,5.461,0,0,1,3.521,1.055,3.635,3.635,0,0,1,1.313,3.008A3.019,3.019,0,0,1,28.47,12.4a3.9,3.9,0,0,1-1.611,1.3,3.626,3.626,0,0,1,1.8,1.289,3.39,3.39,0,0,1,.62,2.021,3.694,3.694,0,0,1-1.421,3.071,5.7,5.7,0,0,1-3.638,1.118,5.568,5.568,0,0,1-3.4-1.05,3.354,3.354,0,0,1-1.372-2.964l.02-.059h2.764a1.734,1.734,0,0,0,.586,1.346,2.13,2.13,0,0,0,1.484.529,2.162,2.162,0,0,0,1.558-.546,1.951,1.951,0,0,0,.571-1.481,2.143,2.143,0,0,0-.562-1.642,2.352,2.352,0,0,0-1.655-.521h-1.6Z" transform="translate(162.79 179)" fill="#fff"/>
    </g>
    <g id="Trazado_39714" data-name="Trazado 39714" transform="translate(-12730 -9621)" fill="#30cd35">
      <path d="M 48.5 48.5 L 0.5 48.5 L 0.5 0.5 L 48.5 0.5 L 48.5 48.5 Z" stroke="none"/>
      <path d="M 1 1 L 1 48 L 48 48 L 48 1 L 1 1 M 0 0 L 49 0 L 49 49 L 0 49 L 0 0 Z" stroke="none" fill="#114811"/>
    </g>
    <g transform="matrix(1, 0, 0, 1, -12842.79, -9785)" filter="url(#Trazado_39715)">
      <path id="Trazado_39715-2" data-name="Trazado 39715" d="M29.437,21H19.729V19.135l4.6-4.932a11.13,11.13,0,0,0,1.416-1.929,3.128,3.128,0,0,0,.42-1.46,2.2,2.2,0,0,0-.483-1.47,1.7,1.7,0,0,0-1.372-.571,1.773,1.773,0,0,0-1.5.669,2.855,2.855,0,0,0-.513,1.782H19.524l-.02-.059A4.3,4.3,0,0,1,20.77,7.909a4.744,4.744,0,0,1,3.54-1.333,4.936,4.936,0,0,1,3.452,1.143,3.92,3.92,0,0,1,1.255,3.047,4.276,4.276,0,0,1-.708,2.378A23.487,23.487,0,0,1,25.97,16L23.44,18.754l.02.049h5.977Z" transform="translate(112.79 179)" fill="#fff"/>
    </g>
    <g id="Trazado_39716" data-name="Trazado 39716" transform="translate(-12629 -9621)" fill="#30cd35">
      <path d="M 48.5 48.5 L 0.5 48.5 L 0.5 0.5 L 48.5 0.5 L 48.5 48.5 Z" stroke="none"/>
      <path d="M 1 1 L 1 48 L 48 48 L 48 1 L 1 1 M 0 0 L 49 0 L 49 49 L 0 49 L 0 0 Z" stroke="none" fill="#114811"/>
    </g>
    <g transform="matrix(1, 0, 0, 1, -12842.79, -9785)" filter="url(#Trazado_39717)">
      <path id="Trazado_39717-2" data-name="Trazado 39717" d="M28.089,15.717H29.7v2.2H28.089V21H25.247V17.914h-5.8l-.127-1.709,5.9-9.424h2.871Zm-6.113,0h3.271V10.59l-.059-.02-.225.4Z" transform="translate(213.79 179)" fill="#fff"/>
    </g>
    <path id="Trazado_39677" data-name="Trazado 39677" d="M-13714.937-9276.967H-13933.8v-218.167" transform="translate(1143.209 -285.229)" fill="none" stroke="#707070" stroke-width="2"/>
    <path id="Trazado_39740" data-name="Trazado 39740" d="M11.675,21H8.823V9.3H5.933V7.289l5.742-.508Z" transform="translate(-12766 -9557)" fill="#3b3b3b"/>
    <path id="Trazado_39741" data-name="Trazado 39741" d="M11.675,21H8.823V9.3H5.933V7.289l5.742-.508Z" transform="translate(-12820 -9604)" fill="#3b3b3b"/>
    <path id="Trazado_39742" data-name="Trazado 39742" d="M14.937,21H5.229V19.135l4.6-4.932a11.13,11.13,0,0,0,1.416-1.929,3.128,3.128,0,0,0,.42-1.46,2.2,2.2,0,0,0-.483-1.47A1.7,1.7,0,0,0,9.81,8.773a1.773,1.773,0,0,0-1.5.669A2.855,2.855,0,0,0,7.8,11.225H5.024L5,11.166A4.3,4.3,0,0,1,6.27,7.909,4.744,4.744,0,0,1,9.81,6.576a4.936,4.936,0,0,1,3.452,1.143,3.92,3.92,0,0,1,1.255,3.047,4.276,4.276,0,0,1-.708,2.378A23.487,23.487,0,0,1,11.47,16L8.94,18.754l.02.049h5.977Z" transform="translate(-12820 -9655)" fill="#3b3b3b"/>
    <path id="Trazado_39743" data-name="Trazado 39743" d="M8.11,12.68h1.6a1.945,1.945,0,0,0,1.5-.532,2.107,2.107,0,0,0,.488-1.479,1.925,1.925,0,0,0-.488-1.377A1.854,1.854,0,0,0,9.8,8.773a2,2,0,0,0-1.348.469,1.542,1.542,0,0,0-.547,1.23H5.142l-.02-.059A3.235,3.235,0,0,1,6.4,7.66a5.1,5.1,0,0,1,3.32-1.084,5.461,5.461,0,0,1,3.521,1.055,3.634,3.634,0,0,1,1.313,3.008A3.019,3.019,0,0,1,13.97,12.4a3.9,3.9,0,0,1-1.611,1.3,3.626,3.626,0,0,1,1.8,1.289,3.39,3.39,0,0,1,.62,2.021,3.694,3.694,0,0,1-1.421,3.071,5.7,5.7,0,0,1-3.638,1.118,5.568,5.568,0,0,1-3.4-1.05,3.354,3.354,0,0,1-1.372-2.964l.02-.059H7.729a1.734,1.734,0,0,0,.586,1.346,2.13,2.13,0,0,0,1.484.529,2.162,2.162,0,0,0,1.558-.546,1.951,1.951,0,0,0,.571-1.481,2.143,2.143,0,0,0-.562-1.642,2.352,2.352,0,0,0-1.655-.521H8.11Z" transform="translate(-12820 -9707)" fill="#3b3b3b"/>
    <path id="Trazado_39749" data-name="Trazado 39749" d="M13.589,15.717H15.2v2.2H13.589V21H10.747V17.914h-5.8l-.127-1.709,5.9-9.424h2.871Zm-6.113,0h3.271V10.59l-.059-.02-.225.4Z" transform="translate(-12820 -9755)" fill="#3b3b3b"/>
    <path id="Trazado_39718" data-name="Trazado 39718" d="M14.937,21H5.229V19.135l4.6-4.932a11.13,11.13,0,0,0,1.416-1.929,3.128,3.128,0,0,0,.42-1.46,2.2,2.2,0,0,0-.483-1.47A1.7,1.7,0,0,0,9.81,8.773a1.773,1.773,0,0,0-1.5.669A2.855,2.855,0,0,0,7.8,11.225H5.024L5,11.166A4.3,4.3,0,0,1,6.27,7.909,4.744,4.744,0,0,1,9.81,6.576a4.936,4.936,0,0,1,3.452,1.143,3.92,3.92,0,0,1,1.255,3.047,4.276,4.276,0,0,1-.708,2.378A23.487,23.487,0,0,1,11.47,16L8.94,18.754l.02.049h5.977Z" transform="translate(-12716 -9557)" fill="#3b3b3b"/>
    <path id="Trazado_39719" data-name="Trazado 39719" d="M8.11,12.68h1.6a1.945,1.945,0,0,0,1.5-.532,2.107,2.107,0,0,0,.488-1.479,1.925,1.925,0,0,0-.488-1.377A1.854,1.854,0,0,0,9.8,8.773a2,2,0,0,0-1.348.469,1.542,1.542,0,0,0-.547,1.23H5.142l-.02-.059A3.235,3.235,0,0,1,6.4,7.66a5.1,5.1,0,0,1,3.32-1.084,5.461,5.461,0,0,1,3.521,1.055,3.634,3.634,0,0,1,1.313,3.008A3.019,3.019,0,0,1,13.97,12.4a3.9,3.9,0,0,1-1.611,1.3,3.626,3.626,0,0,1,1.8,1.289,3.39,3.39,0,0,1,.62,2.021,3.694,3.694,0,0,1-1.421,3.071,5.7,5.7,0,0,1-3.638,1.118,5.568,5.568,0,0,1-3.4-1.05,3.354,3.354,0,0,1-1.372-2.964l.02-.059H7.729a1.734,1.734,0,0,0,.586,1.346,2.13,2.13,0,0,0,1.484.529,2.162,2.162,0,0,0,1.558-.546,1.951,1.951,0,0,0,.571-1.481,2.143,2.143,0,0,0-.562-1.642,2.352,2.352,0,0,0-1.655-.521H8.11Z" transform="translate(-12666 -9557)" fill="#3b3b3b"/>
    <path id="Trazado_39720" data-name="Trazado 39720" d="M13.589,15.717H15.2v2.2H13.589V21H10.747V17.914h-5.8l-.127-1.709,5.9-9.424h2.871Zm-6.113,0h3.271V10.59l-.059-.02-.225.4Z" transform="translate(-12614 -9557)" fill="#3b3b3b"/>
    <path id="Trazado_39711" data-name="Trazado 39711" d="M10.044,14.148V19H7.908V6.2h5A4.741,4.741,0,0,1,16.227,7.3a3.711,3.711,0,0,1,1.2,2.878,3.7,3.7,0,0,1-1.2,2.887,4.765,4.765,0,0,1-3.318,1.085Zm0-1.714h2.865a2.341,2.341,0,0,0,1.784-.633,2.249,2.249,0,0,0,.6-1.608,2.157,2.157,0,0,0-2.382-2.276H10.044ZM24,11.415l-.914-.035a1.915,1.915,0,0,0-1.042.264,1.736,1.736,0,0,0-.646.747V19H19.264V9.49h1.951l.141,1.38a3.05,3.05,0,0,1,.927-1.143,2.158,2.158,0,0,1,1.305-.413,1.99,1.99,0,0,1,.36.031,2.631,2.631,0,0,1,.308.075Zm1.1,2.742a5.18,5.18,0,0,1,1.16-3.48,4,4,0,0,1,3.19-1.362,3.988,3.988,0,0,1,3.208,1.362,5.135,5.135,0,0,1,1.169,3.48v.185a5.161,5.161,0,0,1-1.169,3.5,3.992,3.992,0,0,1-3.19,1.345,4.016,4.016,0,0,1-3.208-1.354,5.172,5.172,0,0,1-1.16-3.489Zm2.136.18A4.237,4.237,0,0,0,27.78,16.6a2.056,2.056,0,0,0,3.357,0,4.132,4.132,0,0,0,.563-2.265v-.184a4.078,4.078,0,0,0-.562-2.238,2.033,2.033,0,0,0-3.357,0,4.209,4.209,0,0,0-.545,2.238Zm16.8.224a5.375,5.375,0,0,1-.971,3.353,3.246,3.246,0,0,1-2.738,1.27,3.15,3.15,0,0,1-1.542-.36,3.009,3.009,0,0,1-1.094-1.055L37.483,19H35.69V5.289h2.136v5.282a3.066,3.066,0,0,1,1.055-.932,3.022,3.022,0,0,1,1.433-.325A3.164,3.164,0,0,1,43.069,10.7a6.288,6.288,0,0,1,.971,3.674ZM41.9,14.377a4.91,4.91,0,0,0-.51-2.4,1.719,1.719,0,0,0-1.617-.914,2.116,2.116,0,0,0-1.191.316,2.212,2.212,0,0,0-.76.879v3.99a2.1,2.1,0,0,0,.756.883,2.194,2.194,0,0,0,1.213.312,1.771,1.771,0,0,0,1.608-.778,3.852,3.852,0,0,0,.5-2.1ZM51.607,19q-.114-.36-.189-.7a5.026,5.026,0,0,1-.1-.686,3.773,3.773,0,0,1-1.156,1.121,2.94,2.94,0,0,1-1.6.453,3.161,3.161,0,0,1-2.281-.765,2.777,2.777,0,0,1-.8-2.1,2.481,2.481,0,0,1,1.09-2.149,5.262,5.262,0,0,1,3.067-.769H51.3v-.835A1.544,1.544,0,0,0,50.86,11.4a1.743,1.743,0,0,0-1.257-.422,1.78,1.78,0,0,0-1.16.352,1.116,1.116,0,0,0-.431.905H45.956l-.009-.053a2.355,2.355,0,0,1,1.006-2,4.264,4.264,0,0,1,2.782-.87,4.069,4.069,0,0,1,2.681.844,2.97,2.97,0,0,1,1.02,2.426v4.228a7.8,7.8,0,0,0,.079,1.129A6,6,0,0,0,53.77,19Zm-2.619-1.529a2.685,2.685,0,0,0,1.455-.4,2.036,2.036,0,0,0,.857-.923V14.737H49.6a2.141,2.141,0,0,0-1.459.461,1.4,1.4,0,0,0-.527,1.085,1.107,1.107,0,0,0,.356.866A1.465,1.465,0,0,0,48.988,17.471Zm15.038-2.909a5.375,5.375,0,0,1-.971,3.353,3.246,3.246,0,0,1-2.738,1.27,3.15,3.15,0,0,1-1.542-.36,3.009,3.009,0,0,1-1.094-1.055L57.47,19H55.677V5.289h2.136v5.282a3.066,3.066,0,0,1,1.055-.932A3.022,3.022,0,0,1,60.3,9.314,3.164,3.164,0,0,1,63.055,10.7a6.288,6.288,0,0,1,.971,3.674Zm-2.136-.185a4.91,4.91,0,0,0-.51-2.4,1.719,1.719,0,0,0-1.617-.914,2.116,2.116,0,0,0-1.191.316,2.212,2.212,0,0,0-.76.879v3.99a2.1,2.1,0,0,0,.756.883,2.194,2.194,0,0,0,1.213.312,1.771,1.771,0,0,0,1.608-.778,3.852,3.852,0,0,0,.5-2.1ZM68.148,19H66.013V9.49h2.136Zm0-11.839H66.013V5.289h2.136ZM72.815,19H70.68V5.289h2.136Zm4.667,0H75.347V9.49h2.136Zm0-11.839H75.347V5.289h2.136Zm2,7.216a6.271,6.271,0,0,1,.976-3.669A3.156,3.156,0,0,1,83.2,9.314a3,3,0,0,1,1.384.312,3.133,3.133,0,0,1,1.059.892V5.289h2.136V19H85.981l-.211-1.178a3.143,3.143,0,0,1-1.1,1.015,3.092,3.092,0,0,1-1.494.347,3.236,3.236,0,0,1-2.725-1.274,5.362,5.362,0,0,1-.976-3.349Zm2.136.185a3.83,3.83,0,0,0,.505,2.1,1.77,1.77,0,0,0,1.6.782,2.144,2.144,0,0,0,1.147-.29,2.208,2.208,0,0,0,.769-.826V12.18a2.249,2.249,0,0,0-.773-.822,2.091,2.091,0,0,0-1.125-.294,1.722,1.722,0,0,0-1.608.918,4.846,4.846,0,0,0-.519,2.4ZM95.79,19q-.114-.36-.189-.7a5.026,5.026,0,0,1-.1-.686,3.773,3.773,0,0,1-1.156,1.121,2.94,2.94,0,0,1-1.6.453,3.161,3.161,0,0,1-2.281-.765,2.777,2.777,0,0,1-.8-2.1,2.481,2.481,0,0,1,1.09-2.149,5.262,5.262,0,0,1,3.067-.769h1.661v-.835a1.544,1.544,0,0,0-.439-1.169,1.743,1.743,0,0,0-1.257-.422,1.78,1.78,0,0,0-1.16.352,1.116,1.116,0,0,0-.431.905H90.139l-.009-.053a2.355,2.355,0,0,1,1.006-2,4.264,4.264,0,0,1,2.782-.87,4.069,4.069,0,0,1,2.681.844,2.97,2.97,0,0,1,1.02,2.426v4.228a7.8,7.8,0,0,0,.079,1.129A6,6,0,0,0,97.952,19Zm-2.619-1.529a2.685,2.685,0,0,0,1.455-.4,2.036,2.036,0,0,0,.857-.923V14.737h-1.7a2.141,2.141,0,0,0-1.459.461,1.4,1.4,0,0,0-.527,1.085,1.107,1.107,0,0,0,.356.866A1.465,1.465,0,0,0,93.171,17.471Zm6.293-3.094a6.271,6.271,0,0,1,.976-3.669,3.156,3.156,0,0,1,2.742-1.393,3,3,0,0,1,1.384.312,3.133,3.133,0,0,1,1.059.892V5.289h2.136V19h-1.793l-.211-1.178a3.143,3.143,0,0,1-1.1,1.015,3.092,3.092,0,0,1-1.494.347,3.236,3.236,0,0,1-2.725-1.274,5.362,5.362,0,0,1-.976-3.349Zm2.136.185a3.83,3.83,0,0,0,.505,2.1,1.77,1.77,0,0,0,1.6.782,2.144,2.144,0,0,0,1.147-.29,2.208,2.208,0,0,0,.769-.826V12.18a2.249,2.249,0,0,0-.773-.822,2.091,2.091,0,0,0-1.125-.294,1.722,1.722,0,0,0-1.608.918,4.846,4.846,0,0,0-.519,2.4Zm12.542-.185a6.271,6.271,0,0,1,.976-3.669,3.156,3.156,0,0,1,2.742-1.393,3,3,0,0,1,1.384.312,3.133,3.133,0,0,1,1.059.892V5.289h2.136V19h-1.793l-.211-1.178a3.143,3.143,0,0,1-1.1,1.015,3.092,3.092,0,0,1-1.494.347,3.236,3.236,0,0,1-2.725-1.274,5.362,5.362,0,0,1-.976-3.349Zm2.136.185a3.83,3.83,0,0,0,.505,2.1,1.77,1.77,0,0,0,1.6.782,2.144,2.144,0,0,0,1.147-.29,2.208,2.208,0,0,0,.769-.826V12.18a2.249,2.249,0,0,0-.773-.822,2.091,2.091,0,0,0-1.125-.294,1.722,1.722,0,0,0-1.608.918,4.846,4.846,0,0,0-.519,2.4Zm12.533,4.623a4.135,4.135,0,0,1-3.221-1.323,4.862,4.862,0,0,1-1.2-3.4v-.352a5.049,5.049,0,0,1,1.191-3.441,3.767,3.767,0,0,1,2.984-1.358,3.717,3.717,0,0,1,2.949,1.165,4.562,4.562,0,0,1,1.024,3.125V14.86H126.6l-.018.044a2.978,2.978,0,0,0,.664,1.848,2.1,2.1,0,0,0,1.692.718,4.573,4.573,0,0,0,1.477-.211,4.838,4.838,0,0,0,1.187-.606l.686,1.4a4.418,4.418,0,0,1-1.424.8A5.938,5.938,0,0,1,128.811,19.185Zm-.246-8.156a1.6,1.6,0,0,0-1.3.628,3.094,3.094,0,0,0-.633,1.6l.018.044h3.771v-.22a2.276,2.276,0,0,0-.461-1.477A1.684,1.684,0,0,0,128.564,11.028ZM144.464,19q-.114-.36-.189-.7a5.026,5.026,0,0,1-.1-.686,3.773,3.773,0,0,1-1.156,1.121,2.94,2.94,0,0,1-1.6.453,3.161,3.161,0,0,1-2.281-.765,2.777,2.777,0,0,1-.8-2.1,2.481,2.481,0,0,1,1.09-2.149A5.262,5.262,0,0,1,142.5,13.4h1.661v-.835a1.544,1.544,0,0,0-.439-1.169,1.743,1.743,0,0,0-1.257-.422,1.78,1.78,0,0,0-1.16.352,1.116,1.116,0,0,0-.431.905h-2.057l-.009-.053a2.355,2.355,0,0,1,1.006-2,4.264,4.264,0,0,1,2.782-.87,4.069,4.069,0,0,1,2.681.844,2.97,2.97,0,0,1,1.02,2.426v4.228a7.8,7.8,0,0,0,.079,1.129A6,6,0,0,0,146.626,19Zm-2.619-1.529a2.685,2.685,0,0,0,1.455-.4,2.036,2.036,0,0,0,.857-.923V14.737h-1.7A2.141,2.141,0,0,0,141,15.2a1.4,1.4,0,0,0-.527,1.085,1.107,1.107,0,0,0,.356.866A1.465,1.465,0,0,0,141.845,17.471Zm8.64-7.98.114,1.239a3.223,3.223,0,0,1,1.169-1.046,3.448,3.448,0,0,1,1.626-.369,2.934,2.934,0,0,1,1.6.422A2.55,2.55,0,0,1,156,11a3.332,3.332,0,0,1,1.16-1.239,3.129,3.129,0,0,1,1.688-.448,2.811,2.811,0,0,1,2.263.98,4.518,4.518,0,0,1,.831,2.975V19H159.8V13.261a2.669,2.669,0,0,0-.417-1.705,1.551,1.551,0,0,0-1.252-.492,1.832,1.832,0,0,0-1.16.369,2.057,2.057,0,0,0-.686.993q0,.132.009.229t.009.185V19h-2.136V13.261a2.64,2.64,0,0,0-.426-1.683,1.533,1.533,0,0,0-1.252-.514,2.249,2.249,0,0,0-1.1.25,1.847,1.847,0,0,0-.716.708V19h-2.136V9.49Zm17.78,9.694a4.135,4.135,0,0,1-3.221-1.323,4.862,4.862,0,0,1-1.2-3.4v-.352a5.049,5.049,0,0,1,1.191-3.441,3.767,3.767,0,0,1,2.984-1.358,3.717,3.717,0,0,1,2.949,1.165,4.562,4.562,0,0,1,1.024,3.125V14.86h-5.933l-.018.044a2.978,2.978,0,0,0,.664,1.848,2.1,2.1,0,0,0,1.692.718,4.573,4.573,0,0,0,1.477-.211,4.838,4.838,0,0,0,1.187-.606l.686,1.4a4.418,4.418,0,0,1-1.424.8A5.938,5.938,0,0,1,168.265,19.185Zm-.246-8.156a1.6,1.6,0,0,0-1.3.628,3.094,3.094,0,0,0-.633,1.6l.018.044h3.771v-.22a2.276,2.276,0,0,0-.461-1.477A1.684,1.684,0,0,0,168.019,11.028Zm7.629-1.538.123,1.371a3.4,3.4,0,0,1,1.173-1.138,3.131,3.131,0,0,1,1.6-.409,2.993,2.993,0,0,1,2.316.9,4.041,4.041,0,0,1,.831,2.808V19H179.55V13.041a2.136,2.136,0,0,0-.444-1.525,1.813,1.813,0,0,0-1.349-.453,2.237,2.237,0,0,0-1.116.277,2.307,2.307,0,0,0-.809.76V19H173.7V9.49ZM189.631,19q-.114-.36-.189-.7a5.026,5.026,0,0,1-.1-.686,3.773,3.773,0,0,1-1.156,1.121,2.94,2.94,0,0,1-1.6.453,3.161,3.161,0,0,1-2.281-.765,2.777,2.777,0,0,1-.8-2.1,2.481,2.481,0,0,1,1.09-2.149,5.262,5.262,0,0,1,3.067-.769h1.661v-.835a1.544,1.544,0,0,0-.439-1.169,1.743,1.743,0,0,0-1.257-.422,1.78,1.78,0,0,0-1.16.352,1.116,1.116,0,0,0-.431.905h-2.057l-.009-.053a2.355,2.355,0,0,1,1.006-2,4.264,4.264,0,0,1,2.782-.87,4.069,4.069,0,0,1,2.681.844,2.97,2.97,0,0,1,1.02,2.426v4.228a7.8,7.8,0,0,0,.079,1.129A6,6,0,0,0,191.793,19Zm-2.619-1.529a2.685,2.685,0,0,0,1.455-.4,2.036,2.036,0,0,0,.857-.923V14.737h-1.7a2.141,2.141,0,0,0-1.459.461,1.4,1.4,0,0,0-.527,1.085,1.107,1.107,0,0,0,.356.866A1.465,1.465,0,0,0,187.012,17.471Zm8.956-.185h5.08V19h-7.726V17.6l4.8-6.391h-4.7V9.49h7.4v1.347ZM208.545,19q-.114-.36-.189-.7a5.026,5.026,0,0,1-.1-.686,3.773,3.773,0,0,1-1.156,1.121,2.94,2.94,0,0,1-1.6.453,3.161,3.161,0,0,1-2.281-.765,2.777,2.777,0,0,1-.8-2.1,2.481,2.481,0,0,1,1.09-2.149,5.262,5.262,0,0,1,3.067-.769h1.661v-.835A1.544,1.544,0,0,0,207.8,11.4a1.743,1.743,0,0,0-1.257-.422,1.78,1.78,0,0,0-1.16.352,1.116,1.116,0,0,0-.431.905h-2.057l-.009-.053a2.355,2.355,0,0,1,1.006-2,4.264,4.264,0,0,1,2.782-.87,4.069,4.069,0,0,1,2.681.844,2.97,2.97,0,0,1,1.02,2.426v4.228a7.8,7.8,0,0,0,.079,1.129A6,6,0,0,0,210.707,19Zm-2.619-1.529a2.685,2.685,0,0,0,1.455-.4,2.036,2.036,0,0,0,.857-.923V14.737h-1.7a2.141,2.141,0,0,0-1.459.461,1.4,1.4,0,0,0-.527,1.085,1.107,1.107,0,0,0,.356.866A1.465,1.465,0,0,0,205.926,17.471Z" transform="translate(-12791 -9526)" fill="#3b3b3b"/>
    <path id="Trazado_39744" data-name="Trazado 39744" d="M40,6.2l3.683,9.844h.053L47.428,6.2H50.2V19H48.061V14.641l.211-5.546-.053-.009L44.422,19H42.99L39.21,9.112l-.053.009.211,5.52V19H37.233V6.2ZM58.45,19q-.114-.36-.189-.7a5.026,5.026,0,0,1-.1-.686A3.773,3.773,0,0,1,57,18.732a2.94,2.94,0,0,1-1.6.453,3.161,3.161,0,0,1-2.281-.765,2.777,2.777,0,0,1-.8-2.1,2.481,2.481,0,0,1,1.09-2.149,5.262,5.262,0,0,1,3.067-.769h1.661v-.835A1.544,1.544,0,0,0,57.7,11.4a1.743,1.743,0,0,0-1.257-.422,1.78,1.78,0,0,0-1.16.352,1.116,1.116,0,0,0-.431.905H52.8l-.009-.053a2.355,2.355,0,0,1,1.006-2,4.264,4.264,0,0,1,2.782-.87,4.069,4.069,0,0,1,2.681.844,2.97,2.97,0,0,1,1.02,2.426v4.228a7.8,7.8,0,0,0,.079,1.129A6,6,0,0,0,60.612,19Zm-2.619-1.529a2.685,2.685,0,0,0,1.455-.4,2.036,2.036,0,0,0,.857-.923V14.737h-1.7a2.141,2.141,0,0,0-1.459.461,1.4,1.4,0,0,0-.527,1.085,1.107,1.107,0,0,0,.356.866A1.465,1.465,0,0,0,55.831,17.471Zm6.3-3.094a6.192,6.192,0,0,1,.993-3.665,3.2,3.2,0,0,1,2.76-1.4,3,3,0,0,1,1.5.365,3.166,3.166,0,0,1,1.094,1.05l.211-1.239h1.775V19a3.589,3.589,0,0,1-1.134,2.839,4.7,4.7,0,0,1-3.217,1,6.3,6.3,0,0,1-1.5-.2,6.961,6.961,0,0,1-1.455-.523l.457-1.679a5.17,5.17,0,0,0,1.165.426,5.58,5.58,0,0,0,1.314.154,2.44,2.44,0,0,0,1.7-.5A1.983,1.983,0,0,0,68.329,19v-.976a2.988,2.988,0,0,1-1.059.866,3.191,3.191,0,0,1-1.4.294,3.284,3.284,0,0,1-2.742-1.274,5.3,5.3,0,0,1-.993-3.349Zm2.136.185a3.733,3.733,0,0,0,.523,2.1,1.81,1.81,0,0,0,1.622.787,2.188,2.188,0,0,0,1.156-.286,2.109,2.109,0,0,0,.76-.822V12.171a2.282,2.282,0,0,0-.769-.813,2.085,2.085,0,0,0-1.129-.294,1.756,1.756,0,0,0-1.63.923,4.752,4.752,0,0,0-.532,2.391ZM74.648,9.49l.123,1.371a3.4,3.4,0,0,1,1.173-1.138,3.131,3.131,0,0,1,1.6-.409,2.993,2.993,0,0,1,2.316.9,4.041,4.041,0,0,1,.831,2.808V19H78.55V13.041a2.136,2.136,0,0,0-.444-1.525,1.813,1.813,0,0,0-1.349-.453,2.237,2.237,0,0,0-1.116.277,2.307,2.307,0,0,0-.809.76V19H72.7V9.49ZM85.186,19H83.05V9.49h2.136Zm0-11.839H83.05V5.289h2.136Zm5.045.018V9.49h1.705v1.582H90.231v5.256a1.146,1.146,0,0,0,.255.839.924.924,0,0,0,.677.25,1.888,1.888,0,0,0,.343-.031,2.083,2.083,0,0,0,.316-.083l.229,1.564a2.449,2.449,0,0,1-.65.233,3.616,3.616,0,0,1-.782.083,2.449,2.449,0,0,1-1.846-.69,3.021,3.021,0,0,1-.668-2.167V11.072h-1.45V9.49H88.1V7.179Zm9.527,10.433a3.254,3.254,0,0,1-1.134,1.165,3.359,3.359,0,0,1-3.973-.567,4.493,4.493,0,0,1-.861-3.032V9.49h2.127v5.7a2.851,2.851,0,0,0,.4,1.749,1.476,1.476,0,0,0,1.222.5,2.747,2.747,0,0,0,1.3-.277,2.011,2.011,0,0,0,.822-.8V9.49H101.8V19H99.934Zm3.876-3.234a6.271,6.271,0,0,1,.976-3.669,3.156,3.156,0,0,1,2.742-1.393,3,3,0,0,1,1.384.312,3.133,3.133,0,0,1,1.059.892V5.289h2.136V19h-1.793l-.211-1.178a3.143,3.143,0,0,1-1.1,1.015,3.092,3.092,0,0,1-1.494.347,3.236,3.236,0,0,1-2.725-1.274,5.362,5.362,0,0,1-.976-3.349Zm2.136.185a3.83,3.83,0,0,0,.505,2.1,1.77,1.77,0,0,0,1.6.782,2.144,2.144,0,0,0,1.147-.29,2.208,2.208,0,0,0,.769-.826V12.18a2.249,2.249,0,0,0-.773-.822,2.091,2.091,0,0,0-1.125-.294,1.722,1.722,0,0,0-1.608.918,4.846,4.846,0,0,0-.519,2.4Zm12.542-.185a6.271,6.271,0,0,1,.976-3.669,3.156,3.156,0,0,1,2.742-1.393,3,3,0,0,1,1.384.312,3.133,3.133,0,0,1,1.059.892V5.289h2.136V19h-1.793l-.211-1.178a3.143,3.143,0,0,1-1.1,1.015,3.092,3.092,0,0,1-1.494.347,3.236,3.236,0,0,1-2.725-1.274,5.362,5.362,0,0,1-.976-3.349Zm2.136.185a3.83,3.83,0,0,0,.505,2.1,1.77,1.77,0,0,0,1.6.782,2.144,2.144,0,0,0,1.147-.29,2.208,2.208,0,0,0,.769-.826V12.18a2.249,2.249,0,0,0-.773-.822,2.091,2.091,0,0,0-1.125-.294,1.722,1.722,0,0,0-1.608.918,4.846,4.846,0,0,0-.519,2.4Zm12.533,4.623a4.135,4.135,0,0,1-3.221-1.323,4.862,4.862,0,0,1-1.2-3.4v-.352a5.049,5.049,0,0,1,1.191-3.441,3.767,3.767,0,0,1,2.984-1.358,3.717,3.717,0,0,1,2.949,1.165,4.562,4.562,0,0,1,1.024,3.125V14.86h-5.933l-.018.044a2.978,2.978,0,0,0,.664,1.848,2.1,2.1,0,0,0,1.692.718,4.573,4.573,0,0,0,1.477-.211,4.838,4.838,0,0,0,1.187-.606l.686,1.4a4.418,4.418,0,0,1-1.424.8A5.938,5.938,0,0,1,132.981,19.185Zm-.246-8.156a1.6,1.6,0,0,0-1.3.628,3.094,3.094,0,0,0-.633,1.6l.018.044h3.771v-.22a2.276,2.276,0,0,0-.461-1.477A1.684,1.684,0,0,0,132.735,11.028Zm9.782,3.349a6.271,6.271,0,0,1,.976-3.669,3.156,3.156,0,0,1,2.742-1.393,3,3,0,0,1,1.384.312,3.133,3.133,0,0,1,1.059.892V5.289h2.136V19h-1.793l-.211-1.178a3.143,3.143,0,0,1-1.1,1.015,3.092,3.092,0,0,1-1.494.347,3.236,3.236,0,0,1-2.725-1.274,5.362,5.362,0,0,1-.976-3.349Zm2.136.185a3.83,3.83,0,0,0,.505,2.1,1.77,1.77,0,0,0,1.6.782,2.144,2.144,0,0,0,1.147-.29,2.208,2.208,0,0,0,.769-.826V12.18a2.249,2.249,0,0,0-.773-.822,2.091,2.091,0,0,0-1.125-.294,1.722,1.722,0,0,0-1.608.918,4.846,4.846,0,0,0-.519,2.4ZM158.83,19q-.114-.36-.189-.7a5.026,5.026,0,0,1-.1-.686,3.773,3.773,0,0,1-1.156,1.121,2.94,2.94,0,0,1-1.6.453,3.161,3.161,0,0,1-2.281-.765,2.777,2.777,0,0,1-.8-2.1,2.481,2.481,0,0,1,1.09-2.149,5.262,5.262,0,0,1,3.067-.769h1.661v-.835a1.544,1.544,0,0,0-.439-1.169,1.743,1.743,0,0,0-1.257-.422,1.78,1.78,0,0,0-1.16.352,1.116,1.116,0,0,0-.431.905h-2.057l-.009-.053a2.355,2.355,0,0,1,1.006-2,4.264,4.264,0,0,1,2.782-.87,4.069,4.069,0,0,1,2.681.844,2.97,2.97,0,0,1,1.02,2.426v4.228a7.8,7.8,0,0,0,.079,1.129A6,6,0,0,0,160.992,19Zm-2.619-1.529a2.685,2.685,0,0,0,1.455-.4,2.036,2.036,0,0,0,.857-.923V14.737h-1.7a2.141,2.141,0,0,0-1.459.461,1.4,1.4,0,0,0-.527,1.085,1.107,1.107,0,0,0,.356.866A1.465,1.465,0,0,0,156.21,17.471Zm8.622-7.98.123,1.371a3.4,3.4,0,0,1,1.173-1.138,3.131,3.131,0,0,1,1.6-.409,2.993,2.993,0,0,1,2.316.9,4.041,4.041,0,0,1,.831,2.808V19h-2.136V13.041a2.136,2.136,0,0,0-.444-1.525,1.813,1.813,0,0,0-1.349-.453,2.237,2.237,0,0,0-1.116.277,2.307,2.307,0,0,0-.809.76V19h-2.136V9.49Zm5.186-3.937a2.059,2.059,0,0,1-.527,1.424,1.7,1.7,0,0,1-1.318.589,2.868,2.868,0,0,1-1.349-.391,2.669,2.669,0,0,0-1.173-.391.728.728,0,0,0-.58.286,1.032,1.032,0,0,0-.237.681l-1.151-.308a2.14,2.14,0,0,1,.523-1.437,1.657,1.657,0,0,1,1.314-.611,3.075,3.075,0,0,1,1.279.391,3.05,3.05,0,0,0,1.244.391.749.749,0,0,0,.58-.281,1,1,0,0,0,.246-.686Zm2.681,8.6a5.18,5.18,0,0,1,1.16-3.48,4.438,4.438,0,0,1,6.4,0,5.135,5.135,0,0,1,1.169,3.48v.185a5.161,5.161,0,0,1-1.169,3.5,4.468,4.468,0,0,1-6.4-.009,5.172,5.172,0,0,1-1.16-3.489Zm2.136.18a4.237,4.237,0,0,0,.545,2.265,2.056,2.056,0,0,0,3.357,0,4.132,4.132,0,0,0,.563-2.265v-.184a4.078,4.078,0,0,0-.562-2.238,2.033,2.033,0,0,0-3.357,0,4.209,4.209,0,0,0-.545,2.238Z" transform="translate(-12848 -9562) rotate(-90)" fill="#3b3b3b"/>
    <path id="Trazado_39721" data-name="Trazado 39721" d="M5.5,0,11,10H0Z" transform="translate(-12569 -9568) rotate(90)" fill="#707070"/>
    <path id="Trazado_39754" data-name="Trazado 39754" d="M5.5,0,11,10H0Z" transform="translate(-12796 -9785)" fill="#707070"/>
  </g>
</svg>
