<svg xmlns="http://www.w3.org/2000/svg" width="150" height="150" viewBox="0 0 150 150">
  <g id="Grupo_28653" data-name="Grupo 28653" transform="translate(15090 8774)">
    <rect id="Rectángulo_5410" data-name="Rectángulo 5410" width="150" height="150" transform="translate(-15090 -8774)" fill="none"/>
    <g id="Grupo_28650" data-name="Grupo 28650" transform="translate(-15057 -8748)">
      <path id="Trazado_39679" data-name="Trazado 39679" d="M1164.024,1793.311h60.24a6.1,6.1,0,0,0,6.085-6.085v-82.145a6.1,6.1,0,0,0-6.085-6.085H1183.8l-25.86,18.406v69.823A6.1,6.1,0,0,0,1164.024,1793.311Z" transform="translate(-1156.299 -1697.475)" fill="#e0e4e8"/>
      <path id="Trazado_39680" data-name="Trazado 39680" d="M1217.756,1788.476h-60.088a7.532,7.532,0,0,1-7.606-7.606v-69.823a1.877,1.877,0,0,1,.609-1.217l26.012-18.406a2.163,2.163,0,0,1,.913-.3h40.312a7.532,7.532,0,0,1,7.606,7.606v82.145A7.759,7.759,0,0,1,1217.756,1788.476Zm-64.651-76.668v69.062a4.482,4.482,0,0,0,4.564,4.564h60.24a4.482,4.482,0,0,0,4.564-4.564v-82.145a4.482,4.482,0,0,0-4.564-4.564h-39.855Z" transform="translate(-1149.943 -1691.119)" fill="#193540"/>
      <path id="Trazado_39681" data-name="Trazado 39681" d="M1249.535,1730.5v82.145h-60.087v-69.823l19.775-12.322Z" transform="translate(-1181.722 -1722.898)" fill="#fff"/>
      <rect id="Rectángulo_5388" data-name="Rectángulo 5388" width="61.148" height="33.616" transform="translate(15.083 59.197) rotate(-17.17)" fill="#657d89"/>
      <path id="Trazado_39682" data-name="Trazado 39682" d="M1230.4,1948.744a1.37,1.37,0,0,1-.76-.152,1.558,1.558,0,0,1-.76-.913l-9.888-32.1a1.544,1.544,0,0,1,1.065-1.977l58.414-18.1a1.191,1.191,0,0,1,1.217.152,1.479,1.479,0,0,1,.76.913l9.888,32.1a1.544,1.544,0,0,1-1.065,1.978l-58.414,18.1Zm-7.91-32.554,8.975,29.207,55.371-17.189L1277.858,1899Z" transform="translate(-1205.482 -1855.95)" fill="#193540"/>
      <path id="Trazado_39683" data-name="Trazado 39683" d="M1277.381,1979.628l-3.651-12.017a4.4,4.4,0,0,0,2.89-5.476l38.334-11.865a4.4,4.4,0,0,0,5.476,2.89l3.651,12.017a4.4,4.4,0,0,0-2.89,5.476l-38.334,11.865A4.455,4.455,0,0,0,1277.381,1979.628Z" transform="translate(-1249.728 -1900.222)" fill="#fff"/>
      <g id="Grupo_28636" data-name="Grupo 28636" transform="translate(28.718 50.215)">
        <ellipse id="Elipse_1269" data-name="Elipse 1269" cx="10.191" cy="13.538" rx="10.191" ry="13.538" transform="translate(6.779 6.017) rotate(-17.17)" fill="#657d89"/>
        <ellipse id="Elipse_1270" data-name="Elipse 1270" cx="2.434" cy="2.434" rx="2.434" ry="2.434" transform="translate(36.052 8.047)" fill="#657d89"/>
        <ellipse id="Elipse_1271" data-name="Elipse 1271" cx="2.434" cy="2.434" rx="2.434" ry="2.434" transform="translate(0 19.152)" fill="#657d89"/>
      </g>
      <path id="Trazado_39684" data-name="Trazado 39684" d="M1391.151,2018.929l-.3-.76a5.776,5.776,0,0,1-3.195-.3l.456-1.217a3.988,3.988,0,0,0,2.282.3l-.456-2.282a8.085,8.085,0,0,1-2.13-.152,1.739,1.739,0,0,1-1.065-1.217,2.544,2.544,0,0,1,.152-1.825,3.039,3.039,0,0,1,1.521-1.217l-.152-.76.76-.152.152.608a5,5,0,0,1,2.586.152l-.3,1.217a3.749,3.749,0,0,0-1.825-.152l.609,2.13h0a4.208,4.208,0,0,1,2.13.3,1.727,1.727,0,0,1,1.065,1.369,2.544,2.544,0,0,1-.152,1.825,2.857,2.857,0,0,1-1.674,1.217l.3.76Zm-3.042-7.15a1.14,1.14,0,0,0-.152.76c.152.3.152.457.456.457.152.152.456.152.913.152l-.609-1.978C1388.565,2011.475,1388.261,2011.627,1388.109,2011.779Zm3.955,4.26a1.371,1.371,0,0,0,.152-.761c-.152-.3-.152-.456-.456-.609-.152-.152-.609-.152-1.065-.152l.608,1.978A.837.837,0,0,0,1392.064,2016.039Z" transform="translate(-1340.833 -1947.889)" fill="#fff"/>
      <path id="Trazado_39685" data-name="Trazado 39685" d="M1183.8,1699l-25.86,18.406h19.928a6.1,6.1,0,0,0,6.085-6.085Z" transform="translate(-1156.299 -1697.475)" fill="#9b235c"/>
      <g id="Grupo_28637" data-name="Grupo 28637" transform="translate(0 0.052)">
        <path id="Trazado_39686" data-name="Trazado 39686" d="M1170.86,1712.786h-19.776a1.832,1.832,0,0,1-1.521-1.065,1.28,1.28,0,0,1,.609-1.674l26.013-18.406a1.8,1.8,0,0,1,1.521-.152,1.6,1.6,0,0,1,.76,1.369v12.322A7.532,7.532,0,0,1,1170.86,1712.786Zm-15.06-3.043h15.06a4.482,4.482,0,0,0,4.564-4.564v-9.432Z" transform="translate(-1149.444 -1691.39)" fill="#193540"/>
        <rect id="Rectángulo_5389" data-name="Rectángulo 5389" width="3.042" height="3.042" transform="translate(37.237 17.442)" fill="#193540"/>
        <rect id="Rectángulo_5390" data-name="Rectángulo 5390" width="3.042" height="3.042" transform="translate(46.364 17.442)" fill="#193540"/>
        <rect id="Rectángulo_5391" data-name="Rectángulo 5391" width="3.042" height="3.042" transform="translate(55.643 17.442)" fill="#193540"/>
        <rect id="Rectángulo_5392" data-name="Rectángulo 5392" width="44.115" height="3.042" transform="translate(14.571 25.2)" fill="#193540"/>
        <rect id="Rectángulo_5393" data-name="Rectángulo 5393" width="44.115" height="3.042" transform="translate(14.571 33.414)" fill="#193540"/>
        <rect id="Rectángulo_5394" data-name="Rectángulo 5394" width="22.057" height="3.042" transform="translate(14.571 41.781)" fill="#193540"/>
      </g>
    </g>
  </g>
</svg>
